<svg width="40" height="40" viewBox="0 0 40 40" fill="none" xmlns="http://www.w3.org/2000/svg">
<path d="M22.3135 5.93111C12.8807 -7.43959 -0.220409 4.9026 5.54407 12.6165C-3.67909 18.3762 0.653004 25.6443 3.97195 28.5585C0.303608 42.4434 16.549 41.9292 19.1692 36.2723C29.6501 41.6206 33.3184 34.7296 33.8425 30.6155C42.7512 27.53 40.6551 17.7591 35.9387 15.702C41.7031 4.9026 28.602 0.274282 22.3135 5.93111Z" fill="#094432"/>
<path d="M12.5771 28.3103V11.8327H16.5867V15.7574L15.5282 15.9845C15.9131 15.0114 16.4263 14.1789 17.0678 13.4869C17.7094 12.7949 18.4578 12.2651 19.3132 11.8975C20.1686 11.5083 21.0989 11.3137 22.1039 11.3137C23.2587 11.3137 24.3066 11.5732 25.2475 12.0921C26.2098 12.5895 26.9689 13.3355 27.525 14.3302C28.1023 15.325 28.391 16.5683 28.391 18.0604V28.3103H24.0606V19.4552C24.0606 18.5253 23.9323 17.7469 23.6757 17.1198C23.4405 16.4927 23.0876 16.0169 22.6172 15.6926C22.1467 15.3682 21.58 15.206 20.9171 15.206C20.4039 15.206 19.8372 15.3466 19.217 15.6277C18.5969 15.9088 18.0515 16.417 17.5811 17.1522C17.132 17.8658 16.9075 18.9146 16.9075 20.2985V28.3103H12.5771Z" fill="#EBC9FB"/>
</svg>
