<svg width="196" height="40" viewBox="0 0 196 40" fill="none" xmlns="http://www.w3.org/2000/svg">
<path d="M22.3135 5.93111C12.8807 -7.43959 -0.220409 4.9026 5.54407 12.6165C-3.67909 18.3762 0.653004 25.6443 3.97195 28.5585C0.303608 42.4434 16.549 41.9292 19.1692 36.2723C29.6501 41.6206 33.3184 34.7296 33.8425 30.6155C42.7512 27.53 40.6551 17.7591 35.9387 15.702C41.7031 4.9026 28.602 0.274282 22.3135 5.93111Z" fill="#094432"/>
<path d="M12.5771 28.3103V11.8327H16.5867V15.7574L15.5282 15.9845C15.9131 15.0114 16.4263 14.1789 17.0678 13.4869C17.7094 12.7949 18.4578 12.2651 19.3132 11.8975C20.1686 11.5083 21.0989 11.3137 22.1039 11.3137C23.2587 11.3137 24.3066 11.5732 25.2475 12.0921C26.2098 12.5895 26.9689 13.3355 27.525 14.3302C28.1023 15.325 28.391 16.5684 28.391 18.0604V28.3103H24.0606V19.4552C24.0606 18.5253 23.9323 17.7469 23.6757 17.1198C23.4405 16.4927 23.0876 16.0169 22.6172 15.6926C22.1467 15.3682 21.58 15.206 20.9171 15.206C20.4039 15.206 19.8372 15.3466 19.217 15.6277C18.5969 15.9088 18.0515 16.417 17.5811 17.1522C17.132 17.8658 16.9075 18.9146 16.9075 20.2985V28.3103H12.5771Z" fill="#EBC9FB"/>
<path d="M49.728 21.74C49.248 21.74 48.84 21.572 48.504 21.236C48.168 20.9 48 20.484 48 19.988C48 19.524 48.168 19.124 48.504 18.788C48.84 18.436 49.256 18.26 49.752 18.26C50.216 18.26 50.616 18.436 50.952 18.788C51.304 19.124 51.48 19.532 51.48 20.012C51.48 20.492 51.304 20.9 50.952 21.236C50.616 21.572 50.208 21.74 49.728 21.74Z" fill="#094432"/>
<path d="M72.248 27L61.232 10.944V10.2H63.992L75.008 26.256V27H72.248ZM61.232 27V10.2H63.992V27H61.232ZM72.248 27V10.2H75.008V27H72.248Z" fill="#094432"/>
<path d="M81.7985 27.36C80.9665 27.36 80.2225 27.2 79.5665 26.88C78.9265 26.56 78.4225 26.112 78.0545 25.536C77.6865 24.96 77.5025 24.304 77.5025 23.568C77.5025 22.432 77.8945 21.528 78.6785 20.856C79.4625 20.168 80.5905 19.768 82.0625 19.656L86.7665 19.272V21.552L82.4705 21.912C81.7025 21.976 81.1505 22.136 80.8145 22.392C80.4785 22.648 80.3105 22.992 80.3105 23.424C80.3105 23.856 80.5025 24.208 80.8865 24.48C81.2705 24.752 81.7585 24.888 82.3505 24.888C82.9745 24.888 83.5345 24.736 84.0305 24.432C84.5425 24.112 84.9505 23.704 85.2545 23.208C85.5585 22.712 85.7105 22.176 85.7105 21.6V19.608C85.7105 18.84 85.4545 18.208 84.9425 17.712C84.4305 17.2 83.7585 16.944 82.9265 16.944C82.2225 16.944 81.6385 17.12 81.1745 17.472C80.7265 17.808 80.4385 18.232 80.3105 18.744H80.0465L77.6945 18.168C77.9825 17.08 78.5825 16.2 79.4945 15.528C80.4225 14.856 81.5745 14.52 82.9505 14.52C84.6625 14.52 85.9985 15.016 86.9585 16.008C87.9185 16.984 88.3985 18.368 88.3985 20.16V27H85.9505V23.472L86.9345 23.616C86.7425 24.304 86.3985 24.936 85.9025 25.512C85.4065 26.072 84.8065 26.52 84.1025 26.856C83.4145 27.192 82.6465 27.36 81.7985 27.36Z" fill="#094432"/>
<path d="M96.9361 27.36C95.7041 27.36 94.6161 27.088 93.6721 26.544C92.7441 26 92.0161 25.248 91.4881 24.288C90.9601 23.328 90.6961 22.208 90.6961 20.928C90.6961 19.664 90.9521 18.552 91.4641 17.592C91.9921 16.616 92.7121 15.864 93.6241 15.336C94.5521 14.792 95.6161 14.52 96.8161 14.52C98.0161 14.52 99.0561 14.8 99.9361 15.36C100.832 15.904 101.528 16.672 102.024 17.664C102.536 18.656 102.792 19.816 102.792 21.144V21.6L102.432 21.96H91.9921V19.656H101.544L100.08 20.208C100.064 19.536 99.9041 18.96 99.6001 18.48C99.3121 17.984 98.9281 17.608 98.4481 17.352C97.9841 17.08 97.4561 16.944 96.8641 16.944C96.2241 16.944 95.6401 17.096 95.1121 17.4C94.5841 17.688 94.1761 18.096 93.8881 18.624C93.6001 19.136 93.4561 19.736 93.4561 20.424V21.384C93.4561 22.04 93.6081 22.64 93.9121 23.184C94.2321 23.712 94.6561 24.136 95.1841 24.456C95.7121 24.776 96.2961 24.936 96.9361 24.936C97.5441 24.936 98.0961 24.776 98.5921 24.456C99.1041 24.12 99.5041 23.672 99.7921 23.112H100.08L102.312 24.072C101.832 25.112 101.12 25.92 100.176 26.496C99.2481 27.072 98.1681 27.36 96.9361 27.36ZM99.2401 13.056C98.7601 13.056 98.3521 12.888 98.0161 12.552C97.6801 12.216 97.5121 11.8 97.5121 11.304C97.5121 10.84 97.6801 10.44 98.0161 10.104C98.3521 9.752 98.7681 9.576 99.2641 9.576C99.7281 9.576 100.128 9.752 100.464 10.104C100.816 10.44 100.992 10.848 100.992 11.328C100.992 11.808 100.816 12.216 100.464 12.552C100.128 12.888 99.7201 13.056 99.2401 13.056ZM94.3921 13.056C93.9121 13.056 93.5041 12.888 93.1681 12.552C92.8321 12.216 92.6641 11.8 92.6641 11.304C92.6641 10.84 92.8321 10.44 93.1681 10.104C93.5041 9.752 93.9201 9.576 94.4161 9.576C94.8801 9.576 95.2801 9.752 95.6161 10.104C95.9681 10.44 96.1441 10.848 96.1441 11.328C96.1441 11.808 95.9681 12.216 95.6161 12.552C95.2801 12.888 94.8721 13.056 94.3921 13.056Z" fill="#094432"/>
<path d="M105.292 27V9.72L107.98 9.384L108.052 9.576V27H105.292Z" fill="#094432"/>
<path d="M111.339 27V9.72L114.027 9.384L114.099 9.576V27H111.339Z" fill="#094432"/>
<path d="M122.881 27.36C121.649 27.36 120.561 27.088 119.617 26.544C118.689 26 117.961 25.248 117.433 24.288C116.905 23.328 116.641 22.208 116.641 20.928C116.641 19.664 116.897 18.552 117.409 17.592C117.937 16.616 118.657 15.864 119.569 15.336C120.497 14.792 121.561 14.52 122.761 14.52C123.961 14.52 125.001 14.8 125.881 15.36C126.777 15.904 127.473 16.672 127.969 17.664C128.481 18.656 128.737 19.816 128.737 21.144V21.6L128.377 21.96H117.937V19.656H127.489L126.025 20.208C126.009 19.536 125.849 18.96 125.545 18.48C125.257 17.984 124.873 17.608 124.393 17.352C123.929 17.08 123.401 16.944 122.809 16.944C122.169 16.944 121.585 17.096 121.057 17.4C120.529 17.688 120.121 18.096 119.833 18.624C119.545 19.136 119.401 19.736 119.401 20.424V21.384C119.401 22.04 119.553 22.64 119.857 23.184C120.177 23.712 120.601 24.136 121.129 24.456C121.657 24.776 122.241 24.936 122.881 24.936C123.489 24.936 124.041 24.776 124.537 24.456C125.049 24.12 125.449 23.672 125.737 23.112H126.025L128.257 24.072C127.777 25.112 127.065 25.92 126.121 26.496C125.193 27.072 124.113 27.36 122.881 27.36Z" fill="#094432"/>
<path d="M137.123 27V10.2H139.883V27H137.123ZM138.539 19.92V17.28H147.131V19.92H138.539ZM138.539 12.84V10.2H147.851V12.84H138.539Z" fill="#094432"/>
<path d="M150.148 27V14.88H152.74V17.976L152.044 17.928C152.38 16.984 152.94 16.24 153.724 15.696C154.508 15.152 155.404 14.88 156.412 14.88H157.588V17.352H156.004C155.38 17.352 154.836 17.496 154.372 17.784C153.908 18.056 153.548 18.448 153.292 18.96C153.036 19.472 152.908 20.08 152.908 20.784V27H150.148Z" fill="#094432"/>
<path d="M164.389 27.36C163.157 27.36 162.069 27.088 161.125 26.544C160.197 26 159.469 25.248 158.941 24.288C158.413 23.328 158.149 22.208 158.149 20.928C158.149 19.664 158.405 18.552 158.917 17.592C159.445 16.616 160.165 15.864 161.077 15.336C162.005 14.792 163.069 14.52 164.269 14.52C165.469 14.52 166.509 14.8 167.389 15.36C168.285 15.904 168.981 16.672 169.477 17.664C169.989 18.656 170.245 19.816 170.245 21.144V21.6L169.885 21.96H159.445V19.656H168.997L167.533 20.208C167.517 19.536 167.357 18.96 167.053 18.48C166.765 17.984 166.381 17.608 165.901 17.352C165.437 17.08 164.909 16.944 164.317 16.944C163.677 16.944 163.093 17.096 162.565 17.4C162.037 17.688 161.629 18.096 161.341 18.624C161.053 19.136 160.909 19.736 160.909 20.424V21.384C160.909 22.04 161.061 22.64 161.365 23.184C161.685 23.712 162.109 24.136 162.637 24.456C163.165 24.776 163.749 24.936 164.389 24.936C164.997 24.936 165.549 24.776 166.045 24.456C166.557 24.12 166.957 23.672 167.245 23.112H167.533L169.765 24.072C169.285 25.112 168.573 25.92 167.629 26.496C166.701 27.072 165.621 27.36 164.389 27.36Z" fill="#094432"/>
<path d="M176.662 31.8C175.03 31.8 173.75 31.48 172.822 30.84C171.894 30.216 171.43 29.344 171.43 28.224C171.43 27.504 171.622 26.872 172.006 26.328C172.406 25.784 172.974 25.36 173.71 25.056L175.054 26.208C174.718 26.352 174.454 26.568 174.262 26.856C174.086 27.144 173.998 27.456 173.998 27.792C173.998 28.256 174.174 28.664 174.526 29.016C174.894 29.368 175.486 29.544 176.302 29.544H177.982C178.846 29.544 179.494 29.416 179.926 29.16C180.358 28.92 180.574 28.56 180.574 28.08C180.574 27.696 180.414 27.4 180.094 27.192C179.79 26.984 179.366 26.88 178.822 26.88H175.822C175.118 26.88 174.486 26.76 173.926 26.52C173.382 26.28 172.95 25.952 172.63 25.536C172.31 25.104 172.15 24.616 172.15 24.072C172.15 23.464 172.334 22.928 172.702 22.464C173.086 21.984 173.63 21.6 174.334 21.312L175.822 22.512C175.438 22.544 175.142 22.68 174.934 22.92C174.726 23.144 174.622 23.384 174.622 23.64C174.622 23.96 174.75 24.216 175.006 24.408C175.262 24.584 175.654 24.672 176.182 24.672H179.11C180.326 24.672 181.294 24.976 182.014 25.584C182.75 26.192 183.118 27 183.118 28.008C183.118 29.16 182.654 30.08 181.726 30.768C180.798 31.456 179.542 31.8 177.958 31.8H176.662ZM177.382 23.136C176.39 23.136 175.518 22.952 174.766 22.584C174.014 22.216 173.422 21.712 172.99 21.072C172.574 20.416 172.366 19.664 172.366 18.816C172.366 17.968 172.574 17.224 172.99 16.584C173.422 15.944 174.014 15.44 174.766 15.072C175.518 14.704 176.39 14.52 177.382 14.52C178.374 14.52 179.238 14.704 179.974 15.072C180.726 15.44 181.31 15.944 181.726 16.584C182.158 17.224 182.374 17.968 182.374 18.816C182.374 19.664 182.158 20.416 181.726 21.072C181.31 21.712 180.726 22.216 179.974 22.584C179.238 22.952 178.374 23.136 177.382 23.136ZM177.382 20.928C178.102 20.928 178.686 20.736 179.134 20.352C179.582 19.952 179.806 19.44 179.806 18.816C179.806 18.192 179.582 17.688 179.134 17.304C178.686 16.92 178.102 16.728 177.382 16.728C176.646 16.728 176.054 16.92 175.606 17.304C175.174 17.688 174.958 18.192 174.958 18.816C174.958 19.44 175.174 19.952 175.606 20.352C176.054 20.736 176.646 20.928 177.382 20.928ZM180.886 16.656L179.158 15.816C179.158 15.112 179.294 14.488 179.566 13.944C179.838 13.4 180.206 12.976 180.67 12.672C181.15 12.352 181.686 12.192 182.278 12.192C182.454 12.192 182.622 12.2 182.782 12.216C182.942 12.216 183.062 12.232 183.142 12.264V14.592L183.022 14.832C182.862 14.784 182.662 14.76 182.422 14.76C181.91 14.76 181.526 14.936 181.27 15.288C181.014 15.64 180.886 16.096 180.886 16.656Z" fill="#094432"/>
<path d="M188.791 27.36C187.959 27.36 187.215 27.2 186.559 26.88C185.919 26.56 185.415 26.112 185.047 25.536C184.679 24.96 184.495 24.304 184.495 23.568C184.495 22.432 184.887 21.528 185.671 20.856C186.455 20.168 187.583 19.768 189.055 19.656L193.759 19.272V21.552L189.463 21.912C188.695 21.976 188.143 22.136 187.807 22.392C187.471 22.648 187.303 22.992 187.303 23.424C187.303 23.856 187.495 24.208 187.879 24.48C188.263 24.752 188.751 24.888 189.343 24.888C189.967 24.888 190.527 24.736 191.023 24.432C191.535 24.112 191.943 23.704 192.247 23.208C192.551 22.712 192.703 22.176 192.703 21.6V19.608C192.703 18.84 192.447 18.208 191.935 17.712C191.423 17.2 190.751 16.944 189.919 16.944C189.215 16.944 188.631 17.12 188.167 17.472C187.719 17.808 187.431 18.232 187.303 18.744H187.039L184.687 18.168C184.975 17.08 185.575 16.2 186.487 15.528C187.415 14.856 188.567 14.52 189.943 14.52C191.655 14.52 192.991 15.016 193.951 16.008C194.911 16.984 195.391 18.368 195.391 20.16V27H192.943V23.472L193.927 23.616C193.735 24.304 193.391 24.936 192.895 25.512C192.399 26.072 191.799 26.52 191.095 26.856C190.407 27.192 189.639 27.36 188.791 27.36Z" fill="#094432"/>
</svg>
