<?xml version="1.0" standalone="no"?>
<!DOCTYPE svg PUBLIC "-//W3C//DTD SVG 1.1//EN" "http://www.w3.org/Graphics/SVG/1.1/DTD/svg11.dtd">
<svg xmlns="http://www.w3.org/2000/svg">
<defs >
<font id="Fustat" horiz-adv-x="534" ><font-face
    font-family="Fustat ExtraBold"
    units-per-em="1000"
    panose-1="0 0 0 0 0 0 0 0 0 0"
    ascent="1000"
    descent="-420"
    alphabetic="0" />
<glyph unicode=" " horiz-adv-x="250" />
<glyph unicode="!" horiz-adv-x="330" d="M118 209L88 700H242L212 209H118ZM166 -10Q131 -10 106 15T80 75Q80 110 105 134T166 159Q200 159 225 135T250 75Q250 40 225 15T166 -10Z" />
<glyph unicode="&quot;" horiz-adv-x="372" d="M222 464L204 700H322L304 464H222ZM68 464L50 700H168L150 464H68Z" />
<glyph unicode="#" horiz-adv-x="663" d="M280 0L486 700H621L415 0H280ZM30 174V300H581V174H30ZM42 0L248 700H383L177 0H42ZM82 400V526H633V400H82Z" />
<glyph unicode="$" horiz-adv-x="621" d="M241 -106V70H367V-106H241ZM241 641V806H367V641H241ZM316 -16Q241 -16 182 10T83 83T30 194L153 226L164 224Q178 189 201 163T255 123T322 109Q357 109 383 120T425 150T441 195Q441 224 422 243T359 273L239 304Q146
328 97 383T48 511Q48 572 79 618T165 690T294 716Q364 716 419 692T511 624T560 517L446 492L435 494Q423 541 386 566T293 591Q245 591 217 568T188 512Q188 482 209 462T274 430L394 399Q487 375 534 325T581 200Q581 135 548 86T456 11T316 -16Z" />
<glyph unicode="%" horiz-adv-x="813" d="M175 327Q106 327 66 379T26 520Q26 609 66 661T175 713Q244 713 284 661T324 520Q324 431 284 379T175 327ZM175 426Q195 426 207 451T219 520Q219 564 207 589T175 614Q154 614 142 589T130 520Q130 477 142 452T175
426ZM130 0L565 700H683L248 0H130ZM638 -13Q569 -13 529 39T489 180Q489 269 529 321T638 373Q707 373 747 321T787 180Q787 91 747 39T638 -13ZM638 86Q658 86 670 111T682 180Q682 224 670 249T638 274Q617 274 605 249T593 180Q593 137 605 112T638 86Z" />
<glyph unicode="&amp;" horiz-adv-x="624" d="M283 -16Q206 -16 151 13T65 90T35 195Q35 263 78 317T197 404L300 449Q332 463 349 482T367 525Q367 557 348 576T296 596Q265 596 245 577T225 525Q225 497 241 470T291 405L644 8V0H477L150 370Q119 405 104 444T89
525Q89 582 115 625T188 692T296 716Q358 716 404 692T477 625T503 525Q503 468 470 419T374 343L272 300Q220 278 197 254T173 193Q173 172 185 152T223 118T288 104Q362 104 416 163T489 343L500 345L606 313Q592 208 548 135T437 23T283 -16Z" />
<glyph unicode="&apos;" horiz-adv-x="218" d="M68 464L50 700H168L150 464H68Z" />
<glyph unicode="(" horiz-adv-x="402" d="M60 255Q60 348 84 432T150 586T246 710H382V702Q333 652 291 585T223 434T197 255H60ZM246 -200Q192 -147 150 -77T84 78T60 255H197Q197 159 223 76T291 -74T382 -192V-200H246Z" />
<glyph unicode=")" horiz-adv-x="402" d="M342 255H205Q205 351 179 434T111 584T20 702V710H156Q211 657 252 587T318 432T342 255ZM156 -200H20V-192Q69 -142 111 -75T179 76T205 255H342Q342 162 318 78T253 -76T156 -200Z" />
<glyph unicode="*" horiz-adv-x="477" d="M387 348L220 465L258 531L442 443L387 348ZM201 497L184 700H293L278 497H201ZM184 294L201 497H278L293 294H184ZM220 465L35 551L90 646L258 531L220 465ZM257 465L219 531L387 646L442 551L257 465ZM90 348L35 443L219
531L257 465L90 348Z" />
<glyph unicode="+" horiz-adv-x="568" d="M50 286V414H518V286H50ZM348 116H220V584H348V116Z" />
<glyph unicode="," horiz-adv-x="270" d="M57 -176V-87Q99 -79 122 -53T146 8Q146 30 140 49L194 80Q197 70 198 62T199 46Q199 22 186 10T158 -6T136 -10Q99 -10 75 16T50 72Q50 109 74 134T136 159Q167 159 188 141T221 93T233 29Q233 1 224 -32T195 -95T141
-147T57 -176Z" />
<glyph unicode="-" horiz-adv-x="433" d="M40 222V350H393V222H40Z" />
<glyph unicode="." horiz-adv-x="270" d="M136 -10Q101 -10 76 15T50 75Q50 110 75 134T136 159Q170 159 195 135T220 75Q220 40 195 15T136 -10Z" />
<glyph unicode="/" horiz-adv-x="483" d="M0 -95L341 764H483L142 -95H0Z" />
<glyph unicode="0" horiz-adv-x="618" d="M309 -16Q228 -16 169 28T78 155T45 350Q45 463 77 545T169 671T309 716Q390 716 449 672T541 545T573 350Q573 237 541 155T450 29T309 -16ZM309 112Q349 112 377 140T422 222T438 350Q438 424 422 477T378 559T309 588Q269
588 240 560T196 478T180 350Q180 276 195 223T240 141T309 112Z" />
<glyph unicode="1" horiz-adv-x="373" d="M168 0V661L235 587L33 428H25V588L171 700H303V0H168Z" />
<glyph unicode="2" horiz-adv-x="570" d="M55 0V118L302 340Q331 366 348 390T374 438T383 485Q383 515 370 538T334 574T280 588Q245 588 220 571T182 521T169 443L158 441L40 465Q40 538 72 594T160 683T285 716Q353 716 405 685T488 601T518 481Q518 443 505
405T463 327T385 243L162 39L134 128H540V0H55Z" />
<glyph unicode="3" horiz-adv-x="598" d="M308 -16Q232 -16 175 14T85 99T45 230L169 255L180 253Q180 214 194 182T237 131T308 112Q340 112 364 124T403 158T418 210Q418 255 386 279T303 304H250V420H305Q346 420 372 442T399 503Q399 529 387 549T353 580T303
591Q272 591 248 577T208 536T187 474L176 472L58 496Q63 555 94 605T178 685T306 716Q370 716 421 691T503 622T534 520Q534 456 495 411T391 358V379Q441 379 477 355T533 290T553 202Q553 140 522 91T436 13T308 -16Z" />
<glyph unicode="4" horiz-adv-x="573" d="M333 0V637L420 601L108 179L102 269H553V141H15V264L338 700H468V0H333Z" />
<glyph unicode="5" horiz-adv-x="593" d="M298 -16Q231 -16 179 10T93 83T45 195L166 220L177 218Q184 192 199 168T240 128T301 112Q336 112 363 127T407 169T423 232Q423 263 408 289T365 330T299 346Q259 346 233 328T184 279L59 304L109 700H516V572H162L233
650L192 344L125 336Q145 372 172 402T236 452T323 471Q387 471 440 440T526 354T558 232Q558 162 526 106T435 17T298 -16Z" />
<glyph unicode="6" horiz-adv-x="605" d="M309 -16Q225 -16 166 29T76 156T45 349Q45 457 78 540T172 669T318 716Q381 716 431 690T514 618T560 512L439 487L428 489Q416 530 389 559T319 588Q275 588 242 559T190 472T173 330Q173 323 173 316T174 300L130 280Q141
337 172 374T243 430T325 448Q395 448 446 418T525 336T554 218Q554 150 523 97T436 14T309 -16ZM310 112Q343 112 367 125T405 162T419 216Q419 247 406 270T367 306T309 320Q276 320 252 307T215 270T201 216Q201 186 214 163T252 126T310 112Z" />
<glyph unicode="7" horiz-adv-x="495" d="M88 0V8L377 666L429 572H20V700H470V576L224 0H88Z" />
<glyph unicode="8" horiz-adv-x="560" d="M280 -16Q205 -16 149 11T62 85T30 191Q30 239 48 279T98 346T176 378L175 362Q117 376 86 421T55 527Q55 583 84 625T165 692T280 716Q344 716 395 692T475 626T505 527Q505 466 474 421T385 362L384 378Q429 373 462
347T512 280T530 191Q530 132 499 85T411 11T280 -16ZM280 112Q331 112 363 138T395 210Q395 240 381 261T340 293T280 304Q246 304 220 293T180 261T165 210Q165 165 197 139T280 112ZM280 420Q322 420 349 442T376 503Q376 542 349 566T280 591Q239 591 212 567T184
503Q184 464 211 442T280 420Z" />
<glyph unicode="9" horiz-adv-x="605" d="M296 716Q381 716 439 671T529 544T560 351Q560 243 527 161T433 31T287 -16Q225 -16 175 10T91 82T45 188L166 213L177 211Q189 171 216 142T286 112Q330 112 363 141T415 228T432 370Q432 378 432 385T431 400L475 420Q464
363 434 326T362 271T280 252Q211 252 160 282T80 364T51 482Q51 550 82 603T168 686T296 716ZM295 588Q262 588 238 575T200 538T186 484Q186 454 200 431T238 394T296 380Q329 380 353 393T391 430T404 484Q404 515 391 538T353 574T295 588Z" />
<glyph unicode=":" horiz-adv-x="270" d="M136 349Q101 349 76 374T50 434Q50 469 75 493T136 518Q170 518 195 494T220 434Q220 399 195 374T136 349ZM136 -10Q101 -10 76 15T50 75Q50 110 75 134T136 159Q170 159 195 135T220 75Q220 40 195 15T136 -10Z" />
<glyph unicode=";" horiz-adv-x="270" d="M136 349Q101 349 76 374T50 434Q50 469 75 493T136 518Q170 518 195 494T220 434Q220 399 195 374T136 349ZM57 -176V-87Q99 -79 122 -53T146 8Q146 30 140 49L194 80Q197 70 198 62T199 46Q199 22 186 10T158 -6T136
-10Q99 -10 75 16T50 72Q50 109 74 134T136 159Q167 159 188 141T221 93T233 29Q233 1 224 -32T195 -95T141 -147T57 -176Z" />
<glyph unicode="&lt;" horiz-adv-x="568" d="M50 299V401L518 586V458L178 331L50 299ZM518 114L50 299V401L178 369L518 242V114Z" />
<glyph unicode="=" horiz-adv-x="568" d="M50 385V513H518V385H50ZM50 443V571H518V443H50Z" />
<glyph unicode="&gt;" horiz-adv-x="568" d="M518 299L390 331L50 458V586L518 401V299ZM50 114V242L390 369L518 401V299L50 114Z" />
<glyph unicode="?" horiz-adv-x="562" d="M196 209Q196 258 209 290T244 343T290 381T335 415T370 455T384 512Q384 544 355 566T287 588Q257 588 232 577T190 545T165 494L154 492L35 517Q47 579 82 623T170 692T286 716Q356 716 411 690T499 618T532 511Q532
462 518 429T480 374T432 335T383 302T346 263T331 209H196ZM264 -10Q229 -10 204 15T178 75Q178 110 203 134T264 159Q298 159 323 135T348 75Q348 40 323 15T264 -10Z" />
<glyph unicode="@" horiz-adv-x="890" d="M444 -157Q359 -157 286 -126T157 -40T71 89T40 248Q40 333 71 406T157 535T286 622T445 653Q530 653 603 622T732 536T819 408T850 249Q850 186 830 135T772 55T679 25Q622 25 585 63T547 159H606Q594 118 566 86T499
35T412 17Q367 17 332 35T275 85T254 156Q254 221 296 257T417 301L585 315V221L432 208Q401 205 385 194T369 162Q369 143 386 132T429 121Q457 121 481 136T520 175T536 227V300Q536 336 510 360T446 384Q416 384 393 368T364 325H354L255 347Q269 411 322 449T446
488Q540 488 594 432T648 275V217Q648 176 658 156T692 135Q713 135 729 161T745 249Q745 310 723 363T659 458T564 522T446 545Q384 545 331 522T237 459T175 364T152 248Q152 186 174 132T237 38T329 -26T443 -49Q472 -49 500 -44T555 -27T604 -1H615L675 -84Q623
-119 563 -138T444 -157Z" />
<glyph unicode="A" horiz-adv-x="667" d="M525 0L272 679L266 700H401L667 8V0H525ZM0 0V8L266 700H401L392 679L139 0H0ZM128 157L158 285H519L549 157H128Z" />
<glyph unicode="B" horiz-adv-x="612" d="M136 0V119H344Q396 119 424 145T452 217Q452 262 423 287T344 313H136V428H331Q359 428 379 437T412 464T424 505Q424 540 399 560T331 581H136V700H331Q433 700 491 648T549 515Q549 476 531 444T482 390T413 365V389Q460
388 498 364T559 299T582 207Q582 113 522 57T357 0H136ZM70 0V700H200V0H70Z" />
<glyph unicode="C" horiz-adv-x="700" d="M376 -16Q275 -16 199 30T82 158T40 350Q40 460 81 542T199 670T376 716Q480 716 559 662T670 514L551 479L540 481Q521 531 477 559T376 588Q314 588 269 559T200 476T175 350Q175 278 199 225T269 142T376 112Q432 112
476 140T540 219L551 221L670 186Q638 92 559 38T376 -16Z" />
<glyph unicode="D" horiz-adv-x="698" d="M157 0V128H330Q390 128 433 156T500 235T523 350Q523 416 500 466T434 544T330 572H157V700H330Q431 700 504 655T618 531T658 350Q658 248 618 169T505 45T330 0H157ZM70 0V700H205V0H70Z" />
<glyph unicode="E" horiz-adv-x="584" d="M70 0V700H205V0H70ZM139 0V128H544V0H139ZM139 291V419H514V291H139ZM139 572V700H544V572H139Z" />
<glyph unicode="F" horiz-adv-x="554" d="M70 0V700H205V0H70ZM139 286V414H494V286H139ZM139 572V700H524V572H139Z" />
<glyph unicode="G" horiz-adv-x="750" d="M367 -16Q271 -16 197 29T82 157T40 350Q40 460 82 542T200 670T375 716Q477 716 554 664T668 521L549 486L538 488Q513 536 471 562T375 588Q317 588 272 559T201 477T175 350Q175 277 202 224T276 141T384 112Q423 112
464 130T532 187T560 282V290L597 272H384V400H676L690 386V0H567V140H612Q585 85 546 51T460 0T367 -16Z" />
<glyph unicode="H" horiz-adv-x="724" d="M519 0V700H654V0H519ZM70 0V700H205V0H70ZM139 296V424H594V296H139Z" />
<glyph unicode="I" horiz-adv-x="275" d="M70 0V700H205V0H70Z" />
<glyph unicode="J" horiz-adv-x="538" d="M259 -16Q194 -16 145 9T68 80T40 187V230H164L175 225V187Q175 155 199 134T259 112Q296 112 319 133T343 187V700H478V189Q478 128 451 82T375 10T259 -16Z" />
<glyph unicode="K" horiz-adv-x="623" d="M140 132V319L467 700H632V692L140 132ZM70 0V700H205V0H70ZM489 0L256 347L357 435L643 8V0H489Z" />
<glyph unicode="L" horiz-adv-x="549" d="M70 0V700H205V0H70ZM139 0V128H534V0H139Z" />
<glyph unicode="M" horiz-adv-x="904" d="M386 0L387 21L677 700H808V679L518 0H386ZM70 0V700H205V0H70ZM387 0L96 679V700H228L518 21V0H387ZM699 0V700H834V0H699Z" />
<glyph unicode="N" horiz-adv-x="734" d="M528 0L70 664V700H205L664 36V0H528ZM70 0V700H205V0H70ZM528 0V700H664V0H528Z" />
<glyph unicode="O" horiz-adv-x="760" d="M380 -16Q280 -16 203 29T83 157T40 350Q40 460 83 542T203 670T380 716Q481 716 557 671T677 543T720 350Q720 240 677 158T558 30T380 -16ZM380 112Q440 112 486 141T559 223T585 350Q585 424 559 477T487 559T380 588Q320
588 274 559T201 477T175 350Q175 277 201 224T273 141T380 112Z" />
<glyph unicode="P" horiz-adv-x="622" d="M452 483Q452 529 424 555T344 581H136V700H357Q462 700 522 641T582 483H452ZM70 0V700H200V0H70ZM136 266V385H344Q396 385 424 411T452 483H582Q582 384 522 325T357 266H136Z" />
<glyph unicode="Q" horiz-adv-x="760" d="M584 0L351 261L446 350L751 8V0H584ZM380 -16Q280 -16 203 29T83 157T40 350Q40 460 83 542T203 670T380 716Q481 716 557 671T677 543T720 350Q720 240 677 158T558 30T380 -16ZM380 112Q440 112 486 141T559 223T585
350Q585 424 559 477T487 559T380 588Q320 588 274 559T201 477T175 350Q175 277 201 224T273 141T380 112Z" />
<glyph unicode="R" horiz-adv-x="627" d="M70 0V700H200V0H70ZM136 266V387H354Q406 387 434 412T462 483H597Q597 384 536 325T367 266H136ZM462 483Q462 528 434 553T354 579H136V700H367Q474 700 535 641T597 483H462ZM452 0L298 304L429 336L597 8V0H452Z" />
<glyph unicode="S" horiz-adv-x="621" d="M316 -16Q241 -16 182 10T83 83T30 194L153 226L164 224Q178 189 201 163T255 123T322 109Q357 109 383 120T425 150T441 195Q441 224 422 243T359 273L239 304Q146 328 97 383T48 511Q48 572 79 618T165 690T294 716Q364
716 419 692T511 624T560 517L446 492L435 494Q423 541 386 566T293 591Q245 591 217 568T188 512Q188 482 209 462T274 430L394 399Q487 375 534 325T581 200Q581 135 548 86T456 11T316 -16Z" />
<glyph unicode="T" horiz-adv-x="583" d="M224 0V700H359V0H224ZM20 572V700H563V572H20Z" />
<glyph unicode="U" horiz-adv-x="668" d="M334 -16Q250 -16 189 17T94 110T60 254V700H195V252Q195 185 231 149T334 112Q402 112 437 148T473 252V700H608V254Q608 171 575 111T480 17T334 -16Z" />
<glyph unicode="V" horiz-adv-x="687" d="M276 0L284 21L542 700H682V692L411 0H276ZM276 0L5 692V700H147L405 21L411 0H276Z" />
<glyph unicode="W" horiz-adv-x="996" d="M640 0L429 700H567L767 21L775 0H640ZM640 0L646 21L849 700H986V692L775 0H640ZM221 0L10 692V700H147L350 21L356 0H221ZM221 0L229 21L429 700H567L356 0H221Z" />
<glyph unicode="X" horiz-adv-x="576" d="M434 0L5 692V700H157L586 8V0H434ZM-10 0V8L239 409L321 294L139 0H-10ZM332 288L251 403L423 700H571V692L332 288Z" />
<glyph unicode="Y" horiz-adv-x="573" d="M219 0V273L-10 692V700H137L321 349H255L438 700H583V692L354 273V0H219Z" />
<glyph unicode="Z" horiz-adv-x="612" d="M40 0V118L468 665L494 572H50V700H567V582L139 35L112 128H572V0H40Z" />
<glyph unicode="[" horiz-adv-x="305" d="M70 -200V710H275V582H205V-72H275V-200H70Z" />
<glyph unicode="\" horiz-adv-x="493" d="M493 -95H351L10 764H152L493 -95Z" />
<glyph unicode="]" horiz-adv-x="305" d="M235 -200H30V-72H100V582H30V710H235V-200Z" />
<glyph unicode="^" horiz-adv-x="486" d="M340 316L224 572L192 700H294L466 316H340ZM20 316L192 700H294L262 572L146 316H20Z" />
<glyph unicode="_" horiz-adv-x="584" d="M30 -173V-45H554V-173H30Z" />
<glyph unicode="`" horiz-adv-x="286" d="M256 572H123L30 709V717H195L256 572Z" />
<glyph unicode="a" horiz-adv-x="558" d="M214 -16Q162 -16 122 4T58 60T35 142Q35 216 85 259T233 311L430 328V220L250 205Q207 201 190 187T172 151Q172 129 193 116T246 102Q281 102 309 120T355 166T372 227V310Q372 353 342 381T266 409Q223 409 197 388T166
340H155L41 364Q56 432 115 478T266 524Q376 524 439 462T503 287V0H386V148H435Q423 104 392 67T315 7T214 -16Z" />
<glyph unicode="b" horiz-adv-x="636" d="M355 -16Q297 -16 252 7T179 67T139 143V363Q150 403 178 439T252 500T355 524Q425 524 480 490T568 394T601 253Q601 174 569 114T481 19T355 -16ZM65 0V720L197 736L200 728V367L160 254L190 141V0H65ZM331 104Q372
104 402 123T449 176T466 254Q466 299 449 332T402 385T331 404Q291 404 261 385T213 333T196 254Q196 210 213 176T260 123T331 104Z" />
<glyph unicode="c" horiz-adv-x="583" d="M304 -16Q224 -16 164 18T69 113T35 254Q35 334 69 395T163 490T304 524Q366 524 414 505T496 445T548 345L437 314H425Q412 356 378 380T304 405Q263 405 233 387T187 335T170 254Q170 208 186 174T233 122T304 103Q333
103 358 114T403 145T430 194H442L553 163Q535 103 501 63T418 4T304 -16Z" />
<glyph unicode="d" horiz-adv-x="636" d="M281 -16Q212 -16 156 18T68 113T35 253Q35 333 67 394T156 489T281 524Q339 524 384 500T458 440T497 363V143Q487 104 458 68T384 8T281 -16ZM305 104Q346 104 376 123T423 176T440 254Q440 299 423 332T376 385T305
404Q265 404 235 385T187 333T170 254Q170 210 187 176T234 123T305 104ZM446 0V141L476 254L436 367V720L568 736L571 728V0H446Z" />
<glyph unicode="e" horiz-adv-x="588" d="M304 -16Q224 -16 164 18T69 113T35 254Q35 334 68 395T161 490T298 524Q375 524 432 489T521 391T553 244V220L538 205H95V312H498L423 285Q423 322 407 350T363 393T301 409Q263 409 233 393T187 348T170 282V229Q170
194 188 165T237 117T304 99Q336 99 366 118T413 169H425L533 124Q502 56 443 20T304 -16Z" />
<glyph unicode="f" horiz-adv-x="364" d="M106 0V536Q106 621 152 670T278 720H349V612L344 601H312Q275 601 258 584T241 530V0H106ZM20 389V508H349V389H20Z" />
<glyph unicode="g" horiz-adv-x="531" d="M244 -200Q140 -200 80 -161T20 -51Q20 -4 46 30T121 84L186 33Q166 25 155 8T143 -30Q143 -53 160 -73T225 -94H296Q346 -94 369 -81T393 -44Q393 -22 375 -11T327 0H209Q163 0 127 15T71 58T50 119Q50 161 75 191T147
241L219 186Q196 186 182 172T168 143Q168 125 182 115T230 104H346Q423 104 469 65T516 -39Q516 -112 456 -156T294 -200H244ZM272 164Q208 164 160 187T85 250T58 344Q58 397 85 437T160 501T272 524Q336 524 384 501T459 438T486 344Q486 291 459 251T384 187T272
164ZM272 268Q312 268 336 289T361 344Q361 378 337 399T272 420Q232 420 208 399T183 344Q183 310 207 289T272 268ZM425 427L341 462Q341 508 359 544T408 602T477 623Q491 623 501 623T516 620V509L511 499Q501 502 485 502Q455 502 440 481T425 427Z" />
<glyph unicode="h" horiz-adv-x="613" d="M65 0V720L197 736L200 728V387L157 380Q175 425 205 457T275 506T362 524Q416 524 460 501T531 431T558 316V0H423V273Q423 316 412 345T378 389T325 404Q301 404 272 391T222 345T200 247V0H65Z" />
<glyph unicode="i" horiz-adv-x="255" d="M60 0V508H195V0H60ZM128 572Q94 572 70 596T46 654Q46 687 70 711T128 735Q161 735 185 711T209 654Q209 620 185 596T128 572Z" />
<glyph unicode="j" horiz-adv-x="255" d="M-48 -200V-92L-43 -81H-11Q26 -81 43 -64T60 -10V508H195V-16Q195 -101 149 -150T23 -200H-48ZM128 572Q94 572 70 596T46 654Q46 687 70 711T128 735Q161 735 185 711T209 654Q209 620 185 596T128 572Z" />
<glyph unicode="k" horiz-adv-x="533" d="M152 80V261L381 508H550V500L152 80ZM65 0V720L197 736L200 728V0H65ZM402 0L234 250L330 334L553 8V0H402Z" />
<glyph unicode="l" horiz-adv-x="265" d="M65 0V720L197 736L200 728V0H65Z" />
<glyph unicode="m" horiz-adv-x="946" d="M60 0V508H185V396L168 415Q187 450 212 474T271 511T352 524Q413 524 463 491T532 390L493 393Q512 435 543 464T615 508T700 524Q751 524 794 501T864 431T891 316V0H756V283Q756 322 745 349T713 390T663 404Q640 404
612 391T564 345T543 247V0H408V283Q408 322 397 349T365 390T315 404Q292 404 264 391T216 345T195 247V0H60Z" />
<glyph unicode="n" horiz-adv-x="608" d="M60 0V508H185V387L152 380Q170 425 200 457T270 506T357 524Q411 524 455 501T526 431T553 316V0H418V273Q418 316 407 345T373 389T320 404Q296 404 267 391T217 345T195 247V0H60Z" />
<glyph unicode="o" horiz-adv-x="600" d="M300 -16Q222 -16 163 18T69 114T35 254Q35 333 69 394T162 489T300 524Q378 524 437 490T531 394T565 254Q565 175 531 114T438 19T300 -16ZM300 103Q340 103 369 121T414 174T430 254Q430 300 414 334T369 386T300 405Q260
405 231 387T186 334T170 254Q170 208 186 174T231 122T300 103Z" />
<glyph unicode="p" horiz-adv-x="631" d="M350 -16Q292 -16 247 8T174 69T134 145V365Q145 404 173 440T247 500T350 524Q420 524 475 490T563 395T596 255Q596 176 564 115T476 19T350 -16ZM60 -200V508H185V367L155 254L195 141V-200H60ZM326 104Q367 104 397
123T444 176T461 254Q461 299 444 332T397 385T326 404Q286 404 256 385T208 333T191 254Q191 210 208 176T255 123T326 104Z" />
<glyph unicode="q" horiz-adv-x="631" d="M281 -16Q212 -16 156 18T68 114T35 255Q35 334 67 394T156 489T281 524Q339 524 384 501T458 441T497 365V145Q487 106 458 69T384 8T281 -16ZM571 -200H436V141L476 254L446 367V508H571V-200ZM305 104Q346 104 376
123T423 176T440 254Q440 299 423 332T376 385T305 404Q265 404 235 385T187 333T170 254Q170 210 187 176T234 123T305 104Z" />
<glyph unicode="r" horiz-adv-x="390" d="M60 0V508H185V387L152 380Q176 440 225 474T338 508H385V389H318Q280 389 253 373T210 327T195 254V0H60Z" />
<glyph unicode="s" horiz-adv-x="498" d="M251 -16Q166 -16 106 23T25 131L148 162L160 159Q168 131 194 115T256 99Q290 99 313 112T336 148Q336 167 322 178T280 195L184 216Q113 232 75 270T36 365Q36 413 63 448T137 504T245 524Q326 524 382 485T457 375L343
350L332 352Q325 377 299 393T239 409Q209 409 189 398T168 367Q168 354 179 343T215 326L311 304Q388 286 428 252T468 156Q468 104 440 65T363 5T251 -16Z" />
<glyph unicode="t" horiz-adv-x="414" d="M278 0Q199 0 153 49T106 184V636H241V199Q241 162 262 141T321 119H369L374 108V0H278ZM20 389V508H374V389H20Z" />
<glyph unicode="u" horiz-adv-x="608" d="M548 508V0H423V121L456 128Q439 83 409 51T339 2T251 -16Q198 -16 153 7T82 77T55 192V508H190V235Q190 193 201 164T235 119T288 104Q312 104 341 117T392 164T413 261V508H548Z" />
<glyph unicode="v" horiz-adv-x="549" d="M208 0L224 39L406 508H544V500L341 0H208ZM208 0L5 500V508H143L325 39L341 0H208Z" />
<glyph unicode="w" horiz-adv-x="834" d="M180 0L10 500V508H145L297 14L313 0H180ZM180 0L196 14L348 508H486L466 500L313 0H180ZM521 0L368 500L348 508H486L638 14L654 0H521ZM521 0L537 14L689 508H824V500L654 0H521Z" />
<glyph unicode="x" horiz-adv-x="512" d="M361 0L10 500V508H161L512 8V0H361ZM0 0V8L213 312L292 207L147 0H0ZM296 202L217 307L355 508H502V500L296 202Z" />
<glyph unicode="y" horiz-adv-x="559" d="M122 -200V-192L204 0L255 108L416 508H554V500L260 -200H122ZM204 0L5 500V508H143L322 39V0H204Z" />
<glyph unicode="z" horiz-adv-x="476" d="M20 0V109L370 474L348 389H23V508H456V399L108 33L127 119H456V0H20Z" />
<glyph unicode="{" horiz-adv-x="406" d="M40 196V314Q73 314 96 328T133 367T146 426V535Q146 588 168 627T229 688T314 710H376V587H337Q309 587 293 567T276 513V403Q276 360 264 327T228 276T171 255L40 196ZM314 -200Q267 -200 229 -178T169 -117T146 -25V84Q146
118 133 143T97 182T40 196V314L171 255Q204 253 227 235T263 184T276 107V-3Q276 -37 292 -57T337 -77H376V-200H314Z" />
<glyph unicode="|" horiz-adv-x="275" d="M70 -130V780H205V-130H70Z" />
<glyph unicode="}" horiz-adv-x="406" d="M366 196L235 255Q203 257 179 275T143 327T130 403V513Q130 547 114 567T69 587H30V710H92Q139 710 177 688T237 627T260 535V426Q260 392 273 367T310 328T366 314V196ZM92 -200H30V-77H69Q97 -77 113 -57T130 -3V107Q130
151 142 183T179 234T235 255L366 314V196Q334 196 310 182T273 143T260 84V-25Q260 -77 238 -116T177 -178T92 -200Z" />
<glyph unicode="~" horiz-adv-x="550" d="M368 258Q337 258 313 268T270 291T232 315T191 325Q169 325 156 307T137 259H28Q28 311 47 352T101 417T182 441Q214 441 237 431T280 408T318 384T359 374Q381 374 395 392T413 440H522Q522 389 503 348T450 282T368 258Z" />
<glyph unicode="&#xa0;" horiz-adv-x="250" />
<glyph unicode="&#xa1;" horiz-adv-x="330" d="M118 291H212L242 -200H88L118 291ZM166 510Q200 510 225 485T250 425Q250 391 225 366T166 341Q131 341 106 366T80 425Q80 460 105 485T166 510Z" />
<glyph unicode="&#xa2;" horiz-adv-x="583" d="M228 -106V57H354V-106H228ZM228 451V614H354V451H228ZM304 -16Q224 -16 164 18T69 113T35 254Q35 334 69 395T163 490T304 524Q366 524 414 505T496 445T548 345L437 314H425Q412 356 378 380T304 405Q263 405 233
387T187 335T170 254Q170 208 186 174T233 122T304 103Q333 103 358 114T403 145T430 194H442L553 163Q535 103 501 63T418 4T304 -16Z" />
<glyph unicode="&#xa3;" horiz-adv-x="638" d="M70 1V129Q120 152 145 190T171 264Q171 300 160 327T134 380T108 435T96 505Q96 567 127 614T215 689T344 716Q410 716 463 692T551 624T598 517L479 492L468 494Q458 539 425 563T343 588Q313 588 291 577T257
546T244 504Q244 471 254 444T278 390T301 333T312 264Q312 207 280 153T193 59T70 1ZM70 1V129H594V1H70ZM70 254V379H459V254H70Z" />
<glyph unicode="&#xa5;" horiz-adv-x="573" d="M58 235V358H506V235H58ZM58 71V194H506V71H58ZM219 0V273L-10 692V700H137L321 349H255L438 700H583V692L354 273V0H219Z" />
<glyph unicode="&#xa7;" horiz-adv-x="625" d="M480 32L393 139Q413 150 425 167T437 206Q437 235 418 254T358 283L248 314Q151 341 102 392T52 516Q52 575 83 620T172 690T303 716Q374 716 430 692T524 624T574 517L455 492L444 494Q432 539 395 563T302 588Q256
588 228 567T200 517Q200 493 221 472T283 440L393 409Q489 384 537 334T585 210Q585 151 558 106T480 32ZM312 -216Q241 -216 185 -192T91 -123T41 -17L160 8L171 6Q183 -39 220 -63T313 -88Q360 -88 387 -67T415 -17Q415 7 394 28T332 60L222 91Q126 116 78 166T30
290Q30 349 58 394T135 468L222 361Q202 350 190 333T178 294Q178 266 197 247T257 217L367 186Q464 159 513 108T563 -16Q563 -75 532 -120T444 -190T312 -216Z" />
<glyph unicode="&#xa8;" horiz-adv-x="432" d="M325 572Q291 572 267 596T243 654Q243 687 267 711T325 735Q358 735 382 711T406 654Q406 620 382 596T325 572ZM112 572Q78 572 54 596T30 654Q30 687 54 711T112 735Q145 735 169 711T193 654Q193 620 169 596T112 572Z" />
<glyph unicode="&#xa9;" horiz-adv-x="812" d="M406 -16Q329 -16 263 11T146 89T68 205T40 350Q40 428 68 494T146 611T262 688T406 716Q483 716 549 689T666 611T744 495T772 350Q772 272 744 206T666 89T550 12T406 -16ZM406 84Q460 84 506 103T588 159T642
243T662 350Q662 408 643 456T588 541T507 596T406 616Q352 616 306 597T224 541T170 457T150 350Q150 292 169 244T224 159T305 104T406 84ZM415 139Q356 139 310 165T237 239T210 350Q210 413 236 460T309 534T415 561Q471 561 522 527T596 430L513 384L507 385Q493
417 471 435T416 454Q389 454 367 441T333 405T320 350Q320 319 332 296T367 259T416 246Q448 246 470 265T507 315L513 316L596 270Q574 208 523 174T415 139Z" />
<glyph unicode="&#xaa;" horiz-adv-x="401" d="M160 339Q104 339 67 370T30 450Q30 500 66 531T170 568L307 580V500L182 490Q158 488 149 479T139 455Q139 443 150 436T178 428Q202 428 222 439T253 468T265 508V566Q265 593 245 610T194 628Q166 628 151 615T130
582H122L36 599Q48 646 89 680T194 715Q271 715 316 672T361 550V350H276V453L312 450Q299 404 258 372T160 339Z" />
<glyph unicode="&#xab;" horiz-adv-x="404" d="M318 22Q298 35 275 56T235 111T218 195Q218 245 234 278T274 333T318 368L374 324V320Q358 295 349 264T339 195Q339 158 348 127T374 70V66L318 22ZM130 22Q110 35 87 56T47 111T30 195Q30 245 46 278T86 333T130
368L186 324V320Q170 295 161 264T151 195Q151 158 160 127T186 70V66L130 22Z" />
<glyph unicode="&#xae;" horiz-adv-x="513" d="M257 283Q196 283 147 311T69 389T40 499Q40 561 69 610T147 687T257 716Q318 716 366 688T444 610T473 499Q473 438 444 389T367 312T257 283ZM257 352Q298 352 331 371T383 424T403 499Q403 542 384 575T331 627T257
647Q216 647 183 628T130 575T111 499Q111 457 130 424T182 372T257 352ZM291 390L236 488H299L351 398V390H291ZM173 390V613H266Q304 613 326 594T348 538Q348 502 326 481T266 460H235V390H173ZM235 514H262Q272 514 280 519T288 535Q288 547 280 551T262 556H235V514Z"
/>
<glyph unicode="&#xaf;" horiz-adv-x="406" d="M30 580V708H376V580H30Z" />
<glyph unicode="&#xb0;" horiz-adv-x="356" d="M178 420Q136 420 103 439T50 492T30 568Q30 611 49 644T102 696T178 716Q220 716 253 697T306 644T326 568Q326 526 307 493T254 440T178 420ZM179 519Q198 519 212 533T226 568Q226 589 212 603T178 617Q158 617
144 603T130 568Q130 547 144 533T179 519Z" />
<glyph unicode="&#xb1;" horiz-adv-x="568" d="M220 190V588H348V190H220ZM50 35V163H518V35H50ZM50 320V448H518V320H50Z" />
<glyph unicode="&#xb4;" horiz-adv-x="286" d="M30 572L91 717H256V709L163 572H30Z" />
<glyph unicode="&#xb6;" horiz-adv-x="730" d="M265 266Q160 266 100 325T40 483Q40 582 100 641T265 700H564V572H350V266H265ZM311 -200V700H436V-200H311ZM535 -200V700H660V-200H535Z" />
<glyph unicode="&#xb7;" horiz-adv-x="223" d="M112 277Q78 277 54 301T30 359Q30 392 54 416T112 440Q145 440 169 416T193 359Q193 325 169 301T112 277Z" />
<glyph unicode="&#xb8;" horiz-adv-x="239" d="M100 -228Q86 -228 69 -224T31 -208L58 -134L67 -132Q74 -137 82 -139T96 -142Q107 -142 113 -136T119 -122Q119 -116 114 -109T96 -102Q80 -102 73 -111L30 -59L81 13H178L110 -79L90 -29Q95 -28 100 -28T112 -27Q153
-27 181 -54T209 -120Q209 -171 177 -199T100 -228Z" />
<glyph unicode="&#xba;" horiz-adv-x="434" d="M217 339Q164 339 123 363T58 429T35 527Q35 582 58 624T122 691T218 715Q271 715 312 691T376 625T399 527Q399 472 376 430T312 363T217 339ZM217 430Q255 430 277 457T299 527Q299 571 277 597T217 624Q180 624
158 598T135 527Q135 484 157 457T217 430Z" />
<glyph unicode="&#xbb;" horiz-adv-x="404" d="M86 22L30 66V70Q46 96 55 127T65 195Q65 232 56 263T30 320V324L86 368Q107 355 130 334T169 279T186 195Q186 145 170 112T130 57T86 22ZM274 22L218 66V70Q234 96 243 127T253 195Q253 232 244 263T218 320V324L274
368Q295 355 318 334T357 279T374 195Q374 145 358 112T318 57T274 22Z" />
<glyph unicode="&#xbc;" horiz-adv-x="733" d="M174 338V607L90 541H86V648L161 702H264V338H174ZM110 0L545 700H663L228 0H110ZM569 -2V65H411V138L573 362H658V146H705V65H658V-2H569ZM513 146H569V222L513 146Z" />
<glyph unicode="&#xbd;" horiz-adv-x="783" d="M174 338V607L90 541H86V648L161 702H264V338H174ZM110 0L545 700H663L228 0H110ZM480 -2V77L601 181Q618 195 626 211T635 241Q635 262 626 272T603 282Q580 282 571 267T562 222L557 221L471 239Q471 276 488 306T536
354T606 372Q662 372 698 334T734 239Q734 211 717 178T660 113L628 87H745V-2H480Z" />
<glyph unicode="&#xbe;" horiz-adv-x="753" d="M182 327Q118 327 80 362T33 461L124 475L130 474Q129 453 139 435T177 417Q196 417 205 427T214 451Q214 464 205 474T178 485H153V558H179Q191 558 198 568T206 592Q206 604 198 613T172 623Q155 623 143 610T129
574L123 573L38 591Q45 639 80 676T179 713Q232 713 270 683T308 602Q308 574 292 550T249 521V534Q281 534 299 507T318 448Q318 398 280 363T182 327ZM130 0L565 700H683L248 0H130ZM589 -2V65H431V138L593 362H678V146H725V65H678V-2H589ZM533 146H589V222L533
146Z" />
<glyph unicode="&#xbf;" horiz-adv-x="562" d="M366 291Q366 243 353 211T318 157T272 119T227 85T192 46T178 -12Q178 -43 207 -65T275 -88Q305 -88 330 -77T372 -45T397 6L408 8L527 -17Q515 -78 480 -123T392 -192T276 -216Q207 -216 151 -190T63 -118T30 -11Q30
38 44 71T82 126T130 165T179 198T216 237T231 291H366ZM298 510Q333 510 358 485T384 425Q384 391 359 366T298 341Q264 341 239 366T214 425Q214 460 239 485T298 510Z" />
<glyph unicode="&#xc0;" horiz-adv-x="667" d="M525 0L272 679L266 700H401L667 8V0H525ZM0 0V8L266 700H401L392 679L139 0H0ZM128 157L158 285H519L549 157H128ZM394 763H261L168 900V908H333L394 763Z" />
<glyph unicode="&#xc1;" horiz-adv-x="667" d="M525 0L272 679L266 700H401L667 8V0H525ZM0 0V8L266 700H401L392 679L139 0H0ZM128 157L158 285H519L549 157H128ZM274 763L335 908H500V900L407 763H274Z" />
<glyph unicode="&#xc2;" horiz-adv-x="667" d="M525 0L272 679L266 700H401L667 8V0H525ZM0 0V8L266 700H401L392 679L139 0H0ZM128 157L158 285H519L549 157H128ZM173 763L254 908H413L494 763H382L333 827L284 763H173Z" />
<glyph unicode="&#xc3;" horiz-adv-x="667" d="M525 0L272 679L266 700H401L667 8V0H525ZM0 0V8L266 700H401L392 679L139 0H0ZM128 157L158 285H519L549 157H128ZM413 754Q389 754 370 762T333 780T300 798T269 806Q250 806 239 792T228 755H120Q120 826 157
870T255 915Q279 915 298 907T335 889T368 871T399 863Q419 863 429 877T440 914H548Q548 844 511 799T413 754Z" />
<glyph unicode="&#xc4;" horiz-adv-x="667" d="M525 0L272 679L266 700H401L667 8V0H525ZM0 0V8L266 700H401L392 679L139 0H0ZM128 157L158 285H519L549 157H128ZM443 762Q409 762 385 786T361 844Q361 877 385 901T443 925Q476 925 500 901T524 844Q524 810
500 786T443 762ZM230 762Q196 762 172 786T148 844Q148 877 172 901T230 925Q263 925 287 901T311 844Q311 810 287 786T230 762Z" />
<glyph unicode="&#xc5;" horiz-adv-x="667" d="M525 0L272 679L266 700H401L667 8V0H525ZM0 0V8L266 700H401L392 679L139 0H0ZM128 157L158 285H519L549 157H128ZM334 685Q294 685 263 702T214 751T196 820Q196 859 214 889T263 937T334 955Q374 955 405 938T454
890T472 820Q472 782 454 751T405 703T334 685ZM334 780Q351 780 362 791T374 820Q374 837 363 848T334 860Q317 860 306 849T294 820Q294 803 305 792T334 780Z" />
<glyph unicode="&#xc6;" horiz-adv-x="964" d="M-20 0L-19 8L380 700H514L510 679L127 0H-20ZM144 157L174 285H535V157H144ZM450 0V700H585V0H450ZM519 0V128H924V0H519ZM519 291V419H894V291H519ZM519 572V700H924V572H519Z" />
<glyph unicode="&#xc7;" horiz-adv-x="700" d="M376 -16Q275 -16 199 30T82 158T40 350Q40 460 81 542T199 670T376 716Q480 716 559 662T670 514L551 479L540 481Q521 531 477 559T376 588Q314 588 269 559T200 476T175 350Q175 278 199 225T269 142T376 112Q432
112 476 140T540 219L551 221L670 186Q638 92 559 38T376 -16ZM347 -228Q333 -228 316 -224T278 -208L305 -134L314 -132Q321 -137 329 -139T343 -142Q354 -142 360 -136T366 -122Q366 -116 361 -109T343 -102Q327 -102 320 -111L277 -59L328 13H425L357 -79L337
-29Q342 -28 347 -28T359 -27Q400 -27 428 -54T456 -120Q456 -171 424 -199T347 -228Z" />
<glyph unicode="&#xc8;" horiz-adv-x="584" d="M70 0V700H205V0H70ZM139 0V128H544V0H139ZM139 291V419H514V291H139ZM139 572V700H544V572H139ZM357 763H224L131 900V908H296L357 763Z" />
<glyph unicode="&#xc9;" horiz-adv-x="584" d="M70 0V700H205V0H70ZM139 0V128H544V0H139ZM139 291V419H514V291H139ZM139 572V700H544V572H139ZM237 763L298 908H463V900L370 763H237Z" />
<glyph unicode="&#xca;" horiz-adv-x="584" d="M70 0V700H205V0H70ZM139 0V128H544V0H139ZM139 291V419H514V291H139ZM139 572V700H544V572H139ZM136 763L217 908H376L457 763H345L296 827L247 763H136Z" />
<glyph unicode="&#xcb;" horiz-adv-x="584" d="M70 0V700H205V0H70ZM139 0V128H544V0H139ZM139 291V419H514V291H139ZM139 572V700H544V572H139ZM406 762Q372 762 348 786T324 844Q324 877 348 901T406 925Q439 925 463 901T487 844Q487 810 463 786T406 762ZM193
762Q159 762 135 786T111 844Q111 877 135 901T193 925Q226 925 250 901T274 844Q274 810 250 786T193 762Z" />
<glyph unicode="&#xcc;" horiz-adv-x="275" d="M70 0V700H205V0H70ZM198 763H65L-28 900V908H137L198 763Z" />
<glyph unicode="&#xcd;" horiz-adv-x="275" d="M70 0V700H205V0H70ZM78 763L139 908H304V900L211 763H78Z" />
<glyph unicode="&#xce;" horiz-adv-x="275" d="M70 0V700H205V0H70ZM-23 763L58 908H217L298 763H186L137 827L88 763H-23Z" />
<glyph unicode="&#xcf;" horiz-adv-x="275" d="M70 0V700H205V0H70ZM247 762Q213 762 189 786T165 844Q165 877 189 901T247 925Q280 925 304 901T328 844Q328 810 304 786T247 762ZM34 762Q0 762 -24 786T-48 844Q-48 877 -24 901T34 925Q67 925 91 901T115 844Q115
810 91 786T34 762Z" />
<glyph unicode="&#xd0;" horiz-adv-x="698" d="M157 0V128H330Q390 128 433 156T500 235T523 350Q523 416 500 466T434 544T330 572H157V700H330Q431 700 504 655T618 531T658 350Q658 248 618 169T505 45T330 0H157ZM70 0V700H205V0H70ZM260 278V422H590V278H260Z" />
<glyph unicode="&#xd1;" horiz-adv-x="734" d="M528 0L70 664V700H205L664 36V0H528ZM70 0V700H205V0H70ZM528 0V700H664V0H528ZM446 754Q422 754 403 762T366 780T333 798T302 806Q283 806 272 792T261 755H153Q153 826 190 870T288 915Q312 915 331 907T368
889T401 871T432 863Q452 863 462 877T473 914H581Q581 844 544 799T446 754Z" />
<glyph unicode="&#xd2;" horiz-adv-x="760" d="M380 -16Q280 -16 203 29T83 157T40 350Q40 460 83 542T203 670T380 716Q481 716 557 671T677 543T720 350Q720 240 677 158T558 30T380 -16ZM380 112Q440 112 486 141T559 223T585 350Q585 424 559 477T487 559T380
588Q320 588 274 559T201 477T175 350Q175 277 201 224T273 141T380 112ZM440 763H307L214 900V908H379L440 763Z" />
<glyph unicode="&#xd3;" horiz-adv-x="760" d="M380 -16Q280 -16 203 29T83 157T40 350Q40 460 83 542T203 670T380 716Q481 716 557 671T677 543T720 350Q720 240 677 158T558 30T380 -16ZM380 112Q440 112 486 141T559 223T585 350Q585 424 559 477T487 559T380
588Q320 588 274 559T201 477T175 350Q175 277 201 224T273 141T380 112ZM320 763L381 908H546V900L453 763H320Z" />
<glyph unicode="&#xd4;" horiz-adv-x="760" d="M380 -16Q280 -16 203 29T83 157T40 350Q40 460 83 542T203 670T380 716Q481 716 557 671T677 543T720 350Q720 240 677 158T558 30T380 -16ZM380 112Q440 112 486 141T559 223T585 350Q585 424 559 477T487 559T380
588Q320 588 274 559T201 477T175 350Q175 277 201 224T273 141T380 112ZM219 763L300 908H459L540 763H428L379 827L330 763H219Z" />
<glyph unicode="&#xd5;" horiz-adv-x="760" d="M380 -16Q280 -16 203 29T83 157T40 350Q40 460 83 542T203 670T380 716Q481 716 557 671T677 543T720 350Q720 240 677 158T558 30T380 -16ZM380 112Q440 112 486 141T559 223T585 350Q585 424 559 477T487 559T380
588Q320 588 274 559T201 477T175 350Q175 277 201 224T273 141T380 112ZM459 754Q435 754 416 762T379 780T346 798T315 806Q296 806 285 792T274 755H166Q166 826 203 870T301 915Q325 915 344 907T381 889T414 871T445 863Q465 863 475 877T486 914H594Q594
844 557 799T459 754Z" />
<glyph unicode="&#xd6;" horiz-adv-x="760" d="M380 -16Q280 -16 203 29T83 157T40 350Q40 460 83 542T203 670T380 716Q481 716 557 671T677 543T720 350Q720 240 677 158T558 30T380 -16ZM380 112Q440 112 486 141T559 223T585 350Q585 424 559 477T487 559T380
588Q320 588 274 559T201 477T175 350Q175 277 201 224T273 141T380 112ZM489 762Q455 762 431 786T407 844Q407 877 431 901T489 925Q522 925 546 901T570 844Q570 810 546 786T489 762ZM276 762Q242 762 218 786T194 844Q194 877 218 901T276 925Q309 925 333
901T357 844Q357 810 333 786T276 762Z" />
<glyph unicode="&#xd7;" horiz-adv-x="568" d="M440 104L38 506L128 596L530 194L440 104ZM128 104L38 194L440 596L530 506L128 104Z" />
<glyph unicode="&#xd8;" horiz-adv-x="760" d="M380 -16Q280 -16 203 29T83 157T40 350Q40 460 83 542T203 670T380 716Q481 716 557 671T677 543T720 350Q720 240 677 158T558 30T380 -16ZM380 112Q440 112 486 141T559 223T585 350Q585 424 559 477T487 559T380
588Q320 588 274 559T201 477T175 350Q175 277 201 224T273 141T380 112ZM171 143L68 202L589 1069L692 1010L171 143Z" />
<glyph unicode="&#xd9;" horiz-adv-x="668" d="M334 -16Q250 -16 189 17T94 110T60 254V700H195V252Q195 185 231 149T334 112Q402 112 437 148T473 252V700H608V254Q608 171 575 111T480 17T334 -16ZM394 763H261L168 900V908H333L394 763Z" />
<glyph unicode="&#xda;" horiz-adv-x="668" d="M334 -16Q250 -16 189 17T94 110T60 254V700H195V252Q195 185 231 149T334 112Q402 112 437 148T473 252V700H608V254Q608 171 575 111T480 17T334 -16ZM274 763L335 908H500V900L407 763H274Z" />
<glyph unicode="&#xdb;" horiz-adv-x="668" d="M334 -16Q250 -16 189 17T94 110T60 254V700H195V252Q195 185 231 149T334 112Q402 112 437 148T473 252V700H608V254Q608 171 575 111T480 17T334 -16ZM173 763L254 908H413L494 763H382L333 827L284 763H173Z" />
<glyph unicode="&#xdc;" horiz-adv-x="668" d="M334 -16Q250 -16 189 17T94 110T60 254V700H195V252Q195 185 231 149T334 112Q402 112 437 148T473 252V700H608V254Q608 171 575 111T480 17T334 -16ZM443 762Q409 762 385 786T361 844Q361 877 385 901T443 925Q476
925 500 901T524 844Q524 810 500 786T443 762ZM230 762Q196 762 172 786T148 844Q148 877 172 901T230 925Q263 925 287 901T311 844Q311 810 287 786T230 762Z" />
<glyph unicode="&#xdd;" horiz-adv-x="573" d="M219 0V273L-10 692V700H137L321 349H255L438 700H583V692L354 273V0H219ZM227 763L288 908H453V900L360 763H227Z" />
<glyph unicode="&#xde;" horiz-adv-x="622" d="M452 350Q452 396 424 422T344 448H136V567H357Q462 567 522 508T582 350H452ZM70 0V700H200V0H70ZM136 133V252H344Q396 252 424 278T452 350H582Q582 251 522 192T357 133H136Z" />
<glyph unicode="&#xdf;" horiz-adv-x="566" d="M55 0V468Q55 545 86 600T172 686T299 716Q357 716 406 691T486 622T517 520Q517 456 479 411T379 358V379Q429 379 465 356T521 294T541 210Q541 152 513 105T432 29T306 0H248V128H315Q343 128 363 139T394 171T406
218Q406 259 381 281T310 304H248V420H312Q330 420 346 430T372 458T382 503Q382 529 370 549T337 580T296 591Q269 591 245 578T206 532T190 446V0H55Z" />
<glyph unicode="&#xe0;" horiz-adv-x="558" d="M214 -16Q162 -16 122 4T58 60T35 142Q35 216 85 259T233 311L430 328V220L250 205Q207 201 190 187T172 151Q172 129 193 116T246 102Q281 102 309 120T355 166T372 227V310Q372 353 342 381T266 409Q223 409 197
388T166 340H155L41 364Q56 432 115 478T266 524Q376 524 439 462T503 287V0H386V148H435Q423 104 392 67T315 7T214 -16ZM340 572H207L114 709V717H279L340 572Z" />
<glyph unicode="&#xe1;" horiz-adv-x="558" d="M214 -16Q162 -16 122 4T58 60T35 142Q35 216 85 259T233 311L430 328V220L250 205Q207 201 190 187T172 151Q172 129 193 116T246 102Q281 102 309 120T355 166T372 227V310Q372 353 342 381T266 409Q223 409 197
388T166 340H155L41 364Q56 432 115 478T266 524Q376 524 439 462T503 287V0H386V148H435Q423 104 392 67T315 7T214 -16ZM211 572L272 717H437V709L344 572H211Z" />
<glyph unicode="&#xe2;" horiz-adv-x="558" d="M214 -16Q162 -16 122 4T58 60T35 142Q35 216 85 259T233 311L430 328V220L250 205Q207 201 190 187T172 151Q172 129 193 116T246 102Q281 102 309 120T355 166T372 227V310Q372 353 342 381T266 409Q223 409 197
388T166 340H155L41 364Q56 432 115 478T266 524Q376 524 439 462T503 287V0H386V148H435Q423 104 392 67T315 7T214 -16ZM113 572L194 717H353L434 572H322L273 636L224 572H113Z" />
<glyph unicode="&#xe3;" horiz-adv-x="558" d="M214 -16Q162 -16 122 4T58 60T35 142Q35 216 85 259T233 311L430 328V220L250 205Q207 201 190 187T172 151Q172 129 193 116T246 102Q281 102 309 120T355 166T372 227V310Q372 353 342 381T266 409Q223 409 197
388T166 340H155L41 364Q56 432 115 478T266 524Q376 524 439 462T503 287V0H386V148H435Q423 104 392 67T315 7T214 -16ZM353 564Q329 564 310 572T273 590T240 608T209 616Q190 616 179 602T168 565H60Q60 636 97 680T195 725Q219 725 238 717T275 699T308 681T339
673Q359 673 369 687T380 724H488Q488 654 451 609T353 564Z" />
<glyph unicode="&#xe4;" horiz-adv-x="558" d="M214 -16Q162 -16 122 4T58 60T35 142Q35 216 85 259T233 311L430 328V220L250 205Q207 201 190 187T172 151Q172 129 193 116T246 102Q281 102 309 120T355 166T372 227V310Q372 353 342 381T266 409Q223 409 197
388T166 340H155L41 364Q56 432 115 478T266 524Q376 524 439 462T503 287V0H386V148H435Q423 104 392 67T315 7T214 -16ZM381 572Q347 572 323 596T299 654Q299 687 323 711T381 735Q414 735 438 711T462 654Q462 620 438 596T381 572ZM168 572Q134 572 110 596T86
654Q86 687 110 711T168 735Q201 735 225 711T249 654Q249 620 225 596T168 572Z" />
<glyph unicode="&#xe5;" horiz-adv-x="558" d="M214 -16Q162 -16 122 4T58 60T35 142Q35 216 85 259T233 311L430 328V220L250 205Q207 201 190 187T172 151Q172 129 193 116T246 102Q281 102 309 120T355 166T372 227V310Q372 353 342 381T266 409Q223 409 197
388T166 340H155L41 364Q56 432 115 478T266 524Q376 524 439 462T503 287V0H386V148H435Q423 104 392 67T315 7T214 -16ZM274 540Q234 540 203 557T154 606T136 675Q136 714 154 744T203 792T274 810Q314 810 345 793T394 745T412 675Q412 637 394 606T345 558T274
540ZM274 635Q291 635 302 646T314 675Q314 692 303 703T274 715Q257 715 246 704T234 675Q234 658 245 647T274 635Z" />
<glyph unicode="&#xe6;" horiz-adv-x="922" d="M638 -16Q558 -16 498 18T403 113T369 254Q369 334 402 395T494 490T632 524Q709 524 766 489T855 391T887 244V220L872 205H429V312H832L757 285Q757 322 740 350T696 393T635 409Q597 409 567 393T521 348T504
282V229Q504 194 522 165T571 117T638 99Q670 99 700 118T747 169H759L867 124Q836 56 777 20T638 -16ZM214 -16Q162 -16 122 4T58 60T35 142Q35 191 57 229T124 289T233 311H429V205H250Q207 205 190 189T172 151Q172 129 193 116T246 102Q281 102 309 120T355
166T372 227V310Q372 353 342 381T266 409Q223 409 197 388T166 340H155L41 364Q56 432 115 478T266 524Q376 524 439 462T503 287V121H386L435 148Q423 104 392 67T315 7T214 -16Z" />
<glyph unicode="&#xe7;" horiz-adv-x="583" d="M304 -16Q224 -16 164 18T69 113T35 254Q35 334 69 395T163 490T304 524Q366 524 414 505T496 445T548 345L437 314H425Q412 356 378 380T304 405Q263 405 233 387T187 335T170 254Q170 208 186 174T233 122T304
103Q333 103 358 114T403 145T430 194H442L553 163Q535 103 501 63T418 4T304 -16ZM274 -228Q260 -228 243 -224T205 -208L232 -134L241 -132Q248 -137 256 -139T270 -142Q281 -142 287 -136T293 -122Q293 -116 288 -109T270 -102Q254 -102 247 -111L204 -59L255
13H352L284 -79L264 -29Q269 -28 274 -28T286 -27Q327 -27 355 -54T383 -120Q383 -171 351 -199T274 -228Z" />
<glyph unicode="&#xe8;" horiz-adv-x="588" d="M304 -16Q224 -16 164 18T69 113T35 254Q35 334 68 395T161 490T298 524Q375 524 432 489T521 391T553 244V220L538 205H95V312H498L423 285Q423 322 407 350T363 393T301 409Q263 409 233 393T187 348T170 282V229Q170
194 188 165T237 117T304 99Q336 99 366 118T413 169H425L533 124Q502 56 443 20T304 -16ZM364 572H231L138 709V717H303L364 572Z" />
<glyph unicode="&#xe9;" horiz-adv-x="588" d="M304 -16Q224 -16 164 18T69 113T35 254Q35 334 68 395T161 490T298 524Q375 524 432 489T521 391T553 244V220L538 205H95V312H498L423 285Q423 322 407 350T363 393T301 409Q263 409 233 393T187 348T170 282V229Q170
194 188 165T237 117T304 99Q336 99 366 118T413 169H425L533 124Q502 56 443 20T304 -16ZM235 572L296 717H461V709L368 572H235Z" />
<glyph unicode="&#xea;" horiz-adv-x="588" d="M304 -16Q224 -16 164 18T69 113T35 254Q35 334 68 395T161 490T298 524Q375 524 432 489T521 391T553 244V220L538 205H95V312H498L423 285Q423 322 407 350T363 393T301 409Q263 409 233 393T187 348T170 282V229Q170
194 188 165T237 117T304 99Q336 99 366 118T413 169H425L533 124Q502 56 443 20T304 -16ZM137 572L218 717H377L458 572H346L297 636L248 572H137Z" />
<glyph unicode="&#xeb;" horiz-adv-x="588" d="M304 -16Q224 -16 164 18T69 113T35 254Q35 334 68 395T161 490T298 524Q375 524 432 489T521 391T553 244V220L538 205H95V312H498L423 285Q423 322 407 350T363 393T301 409Q263 409 233 393T187 348T170 282V229Q170
194 188 165T237 117T304 99Q336 99 366 118T413 169H425L533 124Q502 56 443 20T304 -16ZM405 572Q371 572 347 596T323 654Q323 687 347 711T405 735Q438 735 462 711T486 654Q486 620 462 596T405 572ZM192 572Q158 572 134 596T110 654Q110 687 134 711T192
735Q225 735 249 711T273 654Q273 620 249 596T192 572Z" />
<glyph unicode="&#xec;" horiz-adv-x="255" d="M60 0V508H195V0H60ZM450 572H317L224 709V717H389L450 572Z" />
<glyph unicode="&#xed;" horiz-adv-x="255" d="M60 0V508H195V0H60ZM65 572L126 717H291V709L198 572H65Z" />
<glyph unicode="&#xee;" horiz-adv-x="255" d="M60 0V508H195V0H60ZM223 572L304 717H463L544 572H432L383 636L334 572H223Z" />
<glyph unicode="&#xef;" horiz-adv-x="255" d="M60 0V508H195V0H60ZM220 572Q186 572 162 596T138 654Q138 687 162 711T220 735Q253 735 277 711T301 654Q301 620 277 596T220 572ZM292 572Q258 572 234 596T210 654Q210 687 234 711T292 735Q325 735 349 711T373
654Q373 620 349 596T292 572Z" />
<glyph unicode="&#xf0;" horiz-adv-x="559" d="M277 -16Q208 -16 153 15T67 101T35 228Q35 299 66 354T151 440T277 471Q301 471 330 463T388 440T437 401T466 347L395 280Q395 343 372 399T308 502T215 582T107 631L155 742Q239 713 306 669T421 566T494 437T519
288Q519 199 489 130T404 23T277 -16ZM277 106Q309 106 333 122T370 166T384 231Q384 268 371 295T333 339T277 355Q246 355 222 339T184 296T170 231Q170 195 183 167T221 122T277 106ZM152 468L107 571L428 715L473 612L152 468Z" />
<glyph unicode="&#xf1;" horiz-adv-x="608" d="M60 0V508H185V387L152 380Q170 425 200 457T270 506T357 524Q411 524 455 501T526 431T553 316V0H418V273Q418 316 407 345T373 389T320 404Q296 404 267 391T217 345T195 247V0H60ZM381 564Q357 564 338 572T301
590T268 608T237 616Q218 616 207 602T196 565H88Q88 636 125 680T223 725Q247 725 266 717T303 699T336 681T367 673Q387 673 397 687T408 724H516Q516 654 479 609T381 564Z" />
<glyph unicode="&#xf2;" horiz-adv-x="600" d="M300 -16Q222 -16 163 18T69 114T35 254Q35 333 69 394T162 489T300 524Q378 524 437 490T531 394T565 254Q565 175 531 114T438 19T300 -16ZM300 103Q340 103 369 121T414 174T430 254Q430 300 414 334T369 386T300
405Q260 405 231 387T186 334T170 254Q170 208 186 174T231 122T300 103ZM366 572H233L140 709V717H305L366 572Z" />
<glyph unicode="&#xf3;" horiz-adv-x="600" d="M300 -16Q222 -16 163 18T69 114T35 254Q35 333 69 394T162 489T300 524Q378 524 437 490T531 394T565 254Q565 175 531 114T438 19T300 -16ZM300 103Q340 103 369 121T414 174T430 254Q430 300 414 334T369 386T300
405Q260 405 231 387T186 334T170 254Q170 208 186 174T231 122T300 103ZM237 572L298 717H463V709L370 572H237Z" />
<glyph unicode="&#xf4;" horiz-adv-x="600" d="M300 -16Q222 -16 163 18T69 114T35 254Q35 333 69 394T162 489T300 524Q378 524 437 490T531 394T565 254Q565 175 531 114T438 19T300 -16ZM300 103Q340 103 369 121T414 174T430 254Q430 300 414 334T369 386T300
405Q260 405 231 387T186 334T170 254Q170 208 186 174T231 122T300 103ZM139 572L220 717H379L460 572H348L299 636L250 572H139Z" />
<glyph unicode="&#xf5;" horiz-adv-x="600" d="M300 -16Q222 -16 163 18T69 114T35 254Q35 333 69 394T162 489T300 524Q378 524 437 490T531 394T565 254Q565 175 531 114T438 19T300 -16ZM300 103Q340 103 369 121T414 174T430 254Q430 300 414 334T369 386T300
405Q260 405 231 387T186 334T170 254Q170 208 186 174T231 122T300 103ZM379 564Q355 564 336 572T299 590T266 608T235 616Q216 616 205 602T194 565H86Q86 636 123 680T221 725Q245 725 264 717T301 699T334 681T365 673Q385 673 395 687T406 724H514Q514 654
477 609T379 564Z" />
<glyph unicode="&#xf6;" horiz-adv-x="600" d="M300 -16Q222 -16 163 18T69 114T35 254Q35 333 69 394T162 489T300 524Q378 524 437 490T531 394T565 254Q565 175 531 114T438 19T300 -16ZM300 103Q340 103 369 121T414 174T430 254Q430 300 414 334T369 386T300
405Q260 405 231 387T186 334T170 254Q170 208 186 174T231 122T300 103ZM407 572Q373 572 349 596T325 654Q325 687 349 711T407 735Q440 735 464 711T488 654Q488 620 464 596T407 572ZM194 572Q160 572 136 596T112 654Q112 687 136 711T194 735Q227 735 251
711T275 654Q275 620 251 596T194 572Z" />
<glyph unicode="&#xf7;" horiz-adv-x="568" d="M50 286V414H518V286H50ZM285 86Q250 86 225 111T199 171Q199 206 224 230T285 255Q319 255 344 231T369 171Q369 136 344 111T285 86ZM285 445Q250 445 225 470T199 530Q199 565 224 589T285 614Q319 614 344 590T369
530Q369 495 344 470T285 445Z" />
<glyph unicode="&#xf8;" horiz-adv-x="600" d="M160 -95L60 -39L431 602L531 546L160 -95ZM300 -16Q222 -16 163 18T69 114T35 254Q35 333 69 394T162 489T300 524Q378 524 437 490T531 394T565 254Q565 175 531 114T438 19T300 -16ZM300 103Q340 103 369 121T414
174T430 254Q430 300 414 334T369 386T300 405Q260 405 231 387T186 334T170 254Q170 208 186 174T231 122T300 103Z" />
<glyph unicode="&#xf9;" horiz-adv-x="608" d="M548 508V0H423V121L456 128Q439 83 409 51T339 2T251 -16Q198 -16 153 7T82 77T55 192V508H190V235Q190 193 201 164T235 119T288 104Q312 104 341 117T392 164T413 261V508H548ZM368 572H235L142 709V717H307L368 572Z" />
<glyph unicode="&#xfa;" horiz-adv-x="608" d="M548 508V0H423V121L456 128Q439 83 409 51T339 2T251 -16Q198 -16 153 7T82 77T55 192V508H190V235Q190 193 201 164T235 119T288 104Q312 104 341 117T392 164T413 261V508H548ZM239 572L300 717H465V709L372 572H239Z" />
<glyph unicode="&#xfb;" horiz-adv-x="608" d="M548 508V0H423V121L456 128Q439 83 409 51T339 2T251 -16Q198 -16 153 7T82 77T55 192V508H190V235Q190 193 201 164T235 119T288 104Q312 104 341 117T392 164T413 261V508H548ZM141 572L222 717H381L462 572H350L301
636L252 572H141Z" />
<glyph unicode="&#xfc;" horiz-adv-x="608" d="M548 508V0H423V121L456 128Q439 83 409 51T339 2T251 -16Q198 -16 153 7T82 77T55 192V508H190V235Q190 193 201 164T235 119T288 104Q312 104 341 117T392 164T413 261V508H548ZM409 572Q375 572 351 596T327 654Q327
687 351 711T409 735Q442 735 466 711T490 654Q490 620 466 596T409 572ZM196 572Q162 572 138 596T114 654Q114 687 138 711T196 735Q229 735 253 711T277 654Q277 620 253 596T196 572Z" />
<glyph unicode="&#xfd;" horiz-adv-x="559" d="M122 -200V-192L204 0L255 108L416 508H554V500L260 -200H122ZM204 0L5 500V508H143L322 39V0H204ZM217 572L278 717H443V709L350 572H217Z" />
<glyph unicode="&#xfe;" horiz-adv-x="631" d="M350 -16Q292 -16 247 8T174 69T134 145V365Q145 404 173 440T247 500T350 524Q420 524 475 490T563 395T596 255Q596 176 564 115T476 19T350 -16ZM60 -200V720L192 736L195 728V421L155 254L195 141V-200H60ZM326
104Q367 104 397 123T444 176T461 254Q461 299 444 332T397 385T326 404Q286 404 256 385T208 333T191 254Q191 210 208 176T255 123T326 104Z" />
<glyph unicode="&#xff;" horiz-adv-x="559" d="M122 -200V-192L204 0L255 108L416 508H554V500L260 -200H122ZM204 0L5 500V508H143L322 39V0H204ZM387 572Q353 572 329 596T305 654Q305 687 329 711T387 735Q420 735 444 711T468 654Q468 620 444 596T387 572ZM174
572Q140 572 116 596T92 654Q92 687 116 711T174 735Q207 735 231 711T255 654Q255 620 231 596T174 572Z" />
<glyph unicode="&#x2013;" horiz-adv-x="584" d="M30 222V350H554V222H30Z" />
<glyph unicode="&#x2014;" horiz-adv-x="794" d="M30 222V350H764V222H30Z" />
<glyph unicode="&#x2018;" horiz-adv-x="247" d="M210 709V618Q167 609 143 583T119 521Q119 499 125 479L70 447Q67 457 66 465T65 482Q65 498 73 510T97 531T129 539Q167 539 192 513T217 455Q217 418 192 392T129 366Q98 366 76 384T42 433T30 499Q30 528 39
561T69 626T124 679T210 709Z" />
<glyph unicode="&#x2019;" horiz-adv-x="247" d="M37 373V464Q80 473 104 500T128 561Q128 584 122 603L177 635Q180 625 181 617T182 600Q182 585 174 572T151 551T118 543Q80 543 55 569T30 627Q30 665 55 690T118 716Q150 716 172 698T205 649T217 583Q217
554 208 521T178 456T123 403T37 373Z" />
<glyph unicode="&#x201a;" horiz-adv-x="247" d="M37 -186V-95Q80 -86 104 -59T128 2Q128 25 122 44L177 76Q180 66 181 58T182 41Q182 26 174 13T151 -8T118 -16Q80 -16 55 10T30 68Q30 106 55 131T118 157Q150 157 172 139T205 90T217 24Q217 -5 208 -38T178
-103T123 -156T37 -186Z" />
<glyph unicode="&#x201c;" horiz-adv-x="457" d="M210 709V618Q167 609 143 583T119 521Q119 499 125 479L70 447Q67 457 66 465T65 482Q65 498 73 510T97 531T129 539Q167 539 192 513T217 455Q217 418 192 392T129 366Q98 366 76 384T42 433T30 499Q30 528 39
561T69 626T124 679T210 709ZM420 709V618Q377 609 353 583T329 521Q329 499 335 479L280 447Q277 457 276 465T275 482Q275 498 283 510T307 531T339 539Q377 539 402 513T427 455Q427 418 402 392T339 366Q308 366 286 384T252 433T240 499Q240 528 249 561T279
626T334 679T420 709Z" />
<glyph unicode="&#x201d;" horiz-adv-x="457" d="M247 373V464Q290 473 314 500T338 561Q338 584 332 603L387 635Q390 625 391 617T392 600Q392 585 384 572T361 551T328 543Q290 543 265 569T240 627Q240 665 265 690T328 716Q360 716 382 698T415 649T427 583Q427
554 418 521T388 456T333 403T247 373ZM37 373V464Q80 473 104 500T128 561Q128 584 122 603L177 635Q180 625 181 617T182 600Q182 585 174 572T151 551T118 543Q80 543 55 569T30 627Q30 665 55 690T118 716Q150 716 172 698T205 649T217 583Q217 554 208 521T178
456T123 403T37 373Z" />
<glyph unicode="&#x201e;" horiz-adv-x="457" d="M247 -186V-95Q290 -86 314 -59T338 2Q338 25 332 44L387 76Q390 66 391 58T392 41Q392 26 384 13T361 -8T328 -16Q290 -16 265 10T240 68Q240 106 265 131T328 157Q360 157 382 139T415 90T427 24Q427 -5 418
-38T388 -103T333 -156T247 -186ZM37 -186V-95Q80 -86 104 -59T128 2Q128 25 122 44L177 76Q180 66 181 58T182 41Q182 26 174 13T151 -8T118 -16Q80 -16 55 10T30 68Q30 106 55 131T118 157Q150 157 172 139T205 90T217 24Q217 -5 208 -38T178 -103T123 -156T37
-186Z" />
<glyph unicode="&#x2022;" horiz-adv-x="340" d="M170 228Q119 228 85 263T50 350Q50 401 84 436T170 472Q221 472 255 437T290 350Q290 299 256 264T170 228Z" />
<glyph unicode="&#x2039;" horiz-adv-x="216" d="M130 22Q110 35 87 56T47 111T30 195Q30 245 46 278T86 333T130 368L186 324V320Q170 295 161 264T151 195Q151 158 160 127T186 70V66L130 22Z" />
<glyph unicode="&#x203a;" horiz-adv-x="216" d="M86 22L30 66V70Q46 96 55 127T65 195Q65 232 56 263T30 320V324L86 368Q107 355 130 334T169 279T186 195Q186 145 170 112T130 57T86 22Z" />
</font>
</defs>
</svg>
