<?xml version="1.0" standalone="no"?>
<!DOCTYPE svg PUBLIC "-//W3C//DTD SVG 1.1//EN" "http://www.w3.org/Graphics/SVG/1.1/DTD/svg11.dtd">
<svg xmlns="http://www.w3.org/2000/svg">
<defs >
<font id="Fustat" horiz-adv-x="512" ><font-face
    font-family="Fustat"
    units-per-em="1000"
    panose-1="0 0 0 0 0 0 0 0 0 0"
    ascent="1000"
    descent="-420"
    alphabetic="0" />
<glyph unicode=" " horiz-adv-x="220" />
<glyph unicode="!" horiz-adv-x="296" d="M113 199L103 700H193L183 199H113ZM148 -8Q123 -8 107 8T90 50Q90 75 106 92T148 109Q173 109 189 92T206 50Q206 25 190 9T148 -8Z" />
<glyph unicode="&quot;" horiz-adv-x="341" d="M209 464L191 700H281L263 464H209ZM78 464L60 700H150L132 464H78Z" />
<glyph unicode="#" horiz-adv-x="663" d="M300 0L506 700H584L378 0H300ZM40 202V274H571V202H40ZM79 0L285 700H363L157 0H79ZM92 426V498H623V426H92Z" />
<glyph unicode="$" horiz-adv-x="613" d="M266 -106V34H341V-106H266ZM266 663V806H341V663H266ZM317 -12Q248 -12 191 14T96 86T45 195L114 212L125 210Q136 168 164 135T231 81T316 61Q365 61 402 77T461 121T483 187Q483 237 455 263T379 303L242 341Q161 364
119 413T77 526Q77 581 105 622T185 688T302 712Q367 712 419 688T506 619T552 516L482 501L471 503Q458 565 412 602T302 639Q236 639 197 608T157 525Q157 484 185 457T266 415L403 377Q479 356 521 309T563 191Q563 130 533 85T447 14T317 -12Z" />
<glyph unicode="%" horiz-adv-x="813" d="M175 329Q110 329 72 380T33 520Q33 608 71 659T175 711Q241 711 279 660T318 520Q318 432 280 381T175 329ZM175 400Q207 400 225 432T243 520Q243 576 225 608T175 640Q144 640 126 608T108 520Q108 465 126 433T175
400ZM150 0L585 700H663L228 0H150ZM638 -11Q573 -11 535 40T496 180Q496 268 534 319T638 371Q704 371 742 320T781 180Q781 92 743 41T638 -11ZM638 60Q670 60 688 92T706 180Q706 236 688 268T638 300Q607 300 589 268T571 180Q571 125 589 93T638 60Z" />
<glyph unicode="&amp;" horiz-adv-x="624" d="M283 -12Q213 -12 160 13T76 85T45 196Q45 255 81 306T191 391L292 436Q347 461 366 486T386 546Q386 587 360 613T290 639Q247 639 220 613T192 546Q192 520 209 483T259 409L619 8V0H527L191 375Q148 422 131 463T114
546Q114 595 136 632T198 691T290 712Q342 712 381 691T442 633T464 546Q464 491 431 450T335 378L234 329Q182 304 153 272T123 191Q123 152 144 123T201 77T284 61Q379 61 440 133T518 335L529 337L590 315Q575 211 534 138T429 26T283 -12Z" />
<glyph unicode="&apos;" horiz-adv-x="210" d="M78 464L60 700H150L132 464H78Z" />
<glyph unicode="(" horiz-adv-x="367" d="M70 255Q70 348 94 432T162 586T260 710H342V702Q291 652 247 585T175 434T147 255H70ZM260 -200Q205 -147 162 -77T95 78T70 255H147Q147 159 174 76T246 -74T342 -192V-200H260Z" />
<glyph unicode=")" horiz-adv-x="367" d="M297 255H220Q220 351 193 434T121 584T25 702V710H107Q163 657 205 587T272 432T297 255ZM107 -200H25V-192Q77 -142 121 -75T192 76T220 255H297Q297 162 273 78T206 -76T107 -200Z" />
<glyph unicode="*" horiz-adv-x="445" d="M366 383L206 482L238 540L405 451L366 383ZM190 512L183 700H262L257 512H190ZM183 323L190 512H257L262 323H183ZM206 482L40 572L79 640L238 540L206 482ZM239 482L206 540L366 640L405 572L239 482ZM79 383L40 451L206
540L239 482L79 383Z" />
<glyph unicode="+" horiz-adv-x="548" d="M50 314V386H498V314H50ZM310 125H238V573H310V125Z" />
<glyph unicode="," horiz-adv-x="236" d="M63 -127V-71Q94 -65 111 -44T128 4Q128 19 123 34L159 54Q161 48 161 43T162 32Q162 15 153 6T134 -5T118 -8Q93 -8 77 8T60 50Q60 75 76 92T118 109Q140 109 155 97T178 64T186 19Q186 -1 180 -24T159 -69T121 -106T63 -127Z" />
<glyph unicode="-" horiz-adv-x="443" d="M45 250V322H398V250H45Z" />
<glyph unicode="." horiz-adv-x="236" d="M118 -8Q93 -8 77 8T60 50Q60 75 76 92T118 109Q143 109 159 92T176 50Q176 25 160 9T118 -8Z" />
<glyph unicode="/" horiz-adv-x="422" d="M0 -95L341 764H422L81 -95H0Z" />
<glyph unicode="0" horiz-adv-x="638" d="M319 -12Q238 -12 179 32T88 158T55 350Q55 461 87 542T179 668T319 712Q400 712 459 668T551 543T583 350Q583 239 551 158T460 33T319 -12ZM319 61Q377 61 418 96T483 196T506 350Q506 439 483 504T419 604T319 639Q262
639 220 604T155 504T132 350Q132 261 155 196T220 96T319 61Z" />
<glyph unicode="1" horiz-adv-x="318" d="M163 0V661L200 633L38 502H30V588L166 700H238V0H163Z" />
<glyph unicode="2" horiz-adv-x="567" d="M62 0V68L322 326Q363 368 386 397T418 451T427 504Q427 538 411 569T362 619T283 639Q241 639 206 620T148 562T126 464L115 462L50 477Q50 551 82 603T167 684T282 712Q347 712 397 684T476 609T505 501Q505 461 493
429T452 361T377 278L155 57L141 73H527V0H62Z" />
<glyph unicode="3" horiz-adv-x="581" d="M295 -12Q225 -12 171 16T86 94T55 213L120 228L131 226Q131 174 151 137T207 81T292 61Q340 61 375 77T429 124T448 196Q448 264 401 300T280 336H228V409H282Q348 409 390 440T433 527Q433 560 416 585T369 625T297
639Q252 639 219 621T166 569T147 489L136 487L71 502Q71 564 100 611T181 685T298 712Q361 712 409 688T484 624T511 532Q511 453 461 411T330 362V383Q390 383 434 359T502 292T526 189Q526 130 498 85T418 14T295 -12Z" />
<glyph unicode="4" horiz-adv-x="553" d="M368 0V637L392 619L93 197L67 224H528V151H20V221L360 700H443V0H368Z" />
<glyph unicode="5" horiz-adv-x="575" d="M293 -12Q224 -12 171 14T85 87T45 196L110 210L121 208Q129 162 151 129T208 79T288 61Q342 61 379 82T437 140T457 227Q457 277 437 315T378 374T289 395Q239 395 200 374T137 311L54 325L112 700H492V627H149L181 650L132
366H112Q129 396 156 419T219 455T300 468Q364 468 417 439T503 356T535 229Q535 157 504 103T419 18T293 -12Z" />
<glyph unicode="6" horiz-adv-x="611" d="M314 -12Q233 -12 175 30T86 149T55 332Q55 446 89 531T184 664T326 712Q385 712 432 687T511 618T551 514L486 499L475 501Q461 564 421 601T322 639Q268 639 226 604T159 500T132 332Q132 325 132 318T132 302L119 316Q135
357 166 387T240 435T329 452Q393 452 444 422T526 341T556 222Q556 154 525 101T439 18T314 -12ZM317 61Q364 61 400 81T457 138T478 220Q478 267 458 302T401 358T317 379Q270 379 234 359T177 303T156 220Q156 174 176 138T233 82T317 61Z" />
<glyph unicode="7" horiz-adv-x="505" d="M123 0V8L411 666L434 627H25V700H475V631L205 0H123Z" />
<glyph unicode="8" horiz-adv-x="560" d="M280 -12Q207 -12 153 13T70 84T40 189Q40 248 64 291T132 359T236 383V362Q159 369 111 411T63 532Q63 583 90 623T166 688T280 712Q346 712 394 688T470 624T497 532Q497 453 449 411T324 362V383Q384 383 428 359T496
292T520 189Q520 130 491 85T407 14T280 -12ZM280 61Q352 61 397 97T442 196Q442 242 421 273T364 320T280 336Q234 336 197 320T139 273T118 196Q118 133 163 97T280 61ZM280 409Q338 409 378 440T419 527Q419 577 382 608T280 639Q216 639 179 608T141 527Q141
471 181 440T280 409Z" />
<glyph unicode="9" horiz-adv-x="611" d="M297 712Q378 712 436 670T525 551T556 368Q556 254 522 169T427 36T285 -12Q226 -12 179 13T101 83T60 186L125 201L136 199Q150 136 190 99T289 61Q343 61 385 96T452 200T479 368Q479 376 479 383T479 398L492 384Q476
343 445 313T371 265T282 248Q218 248 167 278T85 360T55 478Q55 546 86 599T172 682T297 712ZM294 639Q247 639 211 619T154 563T133 480Q133 434 153 398T210 342T294 321Q341 321 377 341T434 398T455 480Q455 527 435 562T378 618T294 639Z" />
<glyph unicode=":" horiz-adv-x="236" d="M118 391Q93 391 77 407T60 449Q60 474 76 491T118 508Q143 508 159 491T176 449Q176 424 160 408T118 391ZM118 -8Q93 -8 77 8T60 50Q60 75 76 92T118 109Q143 109 159 92T176 50Q176 25 160 9T118 -8Z" />
<glyph unicode=";" horiz-adv-x="236" d="M118 391Q93 391 77 407T60 449Q60 474 76 491T118 508Q143 508 159 491T176 449Q176 424 160 408T118 391ZM63 -127V-71Q94 -65 111 -44T128 4Q128 19 123 34L159 54Q161 48 161 43T162 32Q162 15 153 6T134 -5T118 -8Q93
-8 77 8T60 50Q60 75 76 92T118 109Q140 109 155 97T178 64T186 19Q186 -1 180 -24T159 -69T121 -106T63 -127Z" />
<glyph unicode="&lt;" horiz-adv-x="548" d="M50 318V382L498 567V487L158 350L50 318ZM498 133L50 318V382L158 350L498 213V133Z" />
<glyph unicode="=" horiz-adv-x="548" d="M50 410V482H498V410H50ZM50 474V546H498V474H50Z" />
<glyph unicode="&gt;" horiz-adv-x="548" d="M498 318L390 350L50 487V567L498 382V318ZM50 133V213L390 350L498 382V318L50 133Z" />
<glyph unicode="?" horiz-adv-x="496" d="M193 199Q193 258 207 295T243 354T289 393T336 424T372 463T386 523Q386 576 349 607T253 639Q217 639 185 622T131 573T106 499L95 497L25 512Q32 571 64 616T145 686T253 712Q314 712 362 688T438 622T466 524Q466
480 452 451T414 402T365 365T316 327T278 276T263 199H193ZM228 -8Q203 -8 187 8T170 50Q170 75 186 92T228 109Q253 109 269 92T286 50Q286 25 270 9T228 -8Z" />
<glyph unicode="@" horiz-adv-x="870" d="M434 -137Q353 -137 284 -108T162 -26T80 97T50 248Q50 329 79 399T161 521T284 603T435 633Q516 633 586 604T708 522T790 400T820 249Q820 186 801 137T748 59T669 31Q623 31 592 61T549 150L577 139Q563 104 536 78T473
38T400 24Q358 24 325 41T272 90T252 161Q252 217 292 253T401 295L562 309V238L417 227Q374 224 351 207T328 162Q328 134 351 115T411 96Q447 96 477 114T525 161T543 227V301Q543 346 513 375T436 405Q401 405 374 387T336 336H328L261 360Q281 416 327 446T438
477Q523 477 570 425T618 277V187Q618 147 632 126T673 104Q709 104 728 142T748 249Q748 315 724 372T658 472T558 539T436 563Q370 563 314 539T215 472T148 371T124 248Q124 182 148 125T214 25T312 -43T433 -67Q465 -67 494 -61T552 -44T604 -16H616L654 -69Q605
-102 550 -119T434 -137Z" />
<glyph unicode="A" horiz-adv-x="617" d="M531 0L278 679L271 700H346L612 8V0H531ZM5 0V8L271 700H346L339 679L86 0H5ZM103 185L133 258H494L524 185H103Z" />
<glyph unicode="B" horiz-adv-x="595" d="M123 0V74H339Q406 74 440 109T474 207Q474 267 438 301T339 335H123V408H321Q358 408 385 422T426 460T441 517Q441 565 411 595T321 626H123V700H321Q416 700 469 649T522 517Q522 483 506 452T462 398T400 365V389Q443
382 478 356T534 291T555 207Q555 113 498 57T339 0H123ZM80 0V700H155V0H80Z" />
<glyph unicode="C" horiz-adv-x="709" d="M371 -12Q278 -12 206 33T92 159T50 350Q50 460 91 541T205 667T371 712Q472 712 551 659T669 506L604 487L593 489Q562 563 505 601T374 639Q303 639 247 604T159 504T127 350Q127 261 159 196T247 96T374 61Q448 61
505 99T593 211L604 213L669 194Q630 95 551 42T371 -12Z" />
<glyph unicode="D" horiz-adv-x="682" d="M116 0V73H315Q391 73 444 107T526 204T555 350Q555 435 527 497T445 593T315 627H116V700H315Q414 700 485 656T594 534T632 350Q632 245 594 167T485 44T315 0H116ZM80 0V700H155V0H80Z" />
<glyph unicode="E" horiz-adv-x="571" d="M80 0V700H155V0H80ZM119 0V73H521V0H119ZM119 318V391H501V318H119ZM119 627V700H521V627H119Z" />
<glyph unicode="F" horiz-adv-x="551" d="M80 0V700H155V0H80ZM119 313V386H481V313H119ZM119 627V700H511V627H119Z" />
<glyph unicode="G" horiz-adv-x="763" d="M381 -12Q285 -12 210 33T93 161T50 351Q50 459 92 540T209 666T382 712Q484 712 561 660T673 519L611 500L600 502Q569 569 514 604T385 639Q310 639 252 604T160 504T127 352Q127 264 160 199T251 97T384 61Q457 61
511 94T594 182T624 297V339L668 304H399V377H678L693 363V0H623V170H650Q628 111 588 70T494 9T381 -12Z" />
<glyph unicode="H" horiz-adv-x="684" d="M529 0V700H604V0H529ZM80 0V700H155V0H80ZM119 323V396H574V323H119Z" />
<glyph unicode="I" horiz-adv-x="235" d="M80 0V700H155V0H80Z" />
<glyph unicode="J" horiz-adv-x="518" d="M249 -12Q189 -12 145 12T75 80T50 181V229H114L125 224V181Q125 126 159 94T249 61Q305 61 339 95T373 189V700H448V191Q448 130 424 85T354 14T249 -12Z" />
<glyph unicode="K" horiz-adv-x="603" d="M116 185V293L485 700H578V692L116 185ZM80 0V700H155V0H80ZM512 0L243 363L298 415L598 8V0H512Z" />
<glyph unicode="L" horiz-adv-x="531" d="M80 0V700H155V0H80ZM119 0V73H511V0H119Z" />
<glyph unicode="M" horiz-adv-x="864" d="M396 0L397 21L687 700H758V679L468 0H396ZM80 0V700H155V0H80ZM397 0L106 679V700H178L468 21V0H397ZM709 0V700H784V0H709Z" />
<glyph unicode="N" horiz-adv-x="694" d="M539 0L80 679V700H155L614 21V0H539ZM80 0V700H155V0H80ZM539 0V700H614V0H539Z" />
<glyph unicode="O" horiz-adv-x="760" d="M380 -12Q285 -12 210 33T93 160T50 350Q50 458 92 539T210 666T380 712Q476 712 550 667T667 540T710 350Q710 242 668 161T551 34T380 -12ZM380 61Q452 61 509 97T600 198T633 350Q633 438 600 503T510 603T380 639Q308
639 251 604T161 503T127 350Q127 263 160 198T251 97T380 61Z" />
<glyph unicode="P" horiz-adv-x="590" d="M459 493Q459 555 423 590T324 626H123V700H324Q422 700 481 644T540 493H459ZM80 0V700H155V0H80ZM123 286V360H324Q387 360 423 395T459 493H540Q540 399 481 343T324 286H123Z" />
<glyph unicode="Q" horiz-adv-x="760" d="M629 0L390 272L444 323L720 8V0H629ZM380 -12Q285 -12 210 33T93 160T50 350Q50 458 92 539T210 666T380 712Q476 712 550 667T667 540T710 350Q710 242 668 161T551 34T380 -12ZM380 61Q452 61 509 97T600 198T633 350Q633
438 600 503T510 603T380 639Q308 639 251 604T161 503T127 350Q127 263 160 198T251 97T380 61Z" />
<glyph unicode="R" horiz-adv-x="595" d="M80 0V700H155V0H80ZM123 286V360H334Q397 360 433 395T469 493H550Q550 399 491 343T334 286H123ZM469 493Q469 555 433 590T334 626H123V700H334Q432 700 491 644T550 493H469ZM473 0L300 304L368 336L555 8V0H473Z" />
<glyph unicode="S" horiz-adv-x="613" d="M317 -12Q248 -12 191 14T96 86T45 195L114 212L125 210Q136 168 164 135T231 81T316 61Q365 61 402 77T461 121T483 187Q483 237 455 263T379 303L242 341Q161 364 119 413T77 526Q77 581 105 622T185 688T302 712Q367
712 419 688T506 619T552 516L482 501L471 503Q458 565 412 602T302 639Q236 639 197 608T157 525Q157 484 185 457T266 415L403 377Q479 356 521 309T563 191Q563 130 533 85T447 14T317 -12Z" />
<glyph unicode="T" horiz-adv-x="564" d="M245 0V700H320V0H245ZM25 627V700H539V627H25Z" />
<glyph unicode="U" horiz-adv-x="648" d="M324 -12Q245 -12 188 20T101 112T70 258V700H145V256Q145 162 191 112T324 61Q411 61 457 111T503 256V700H578V258Q578 173 548 113T460 20T324 -12Z" />
<glyph unicode="V" horiz-adv-x="667" d="M296 0L303 21L561 700H642V692L371 0H296ZM296 0L25 692V700H106L364 21L371 0H296Z" />
<glyph unicode="W" horiz-adv-x="975" d="M673 0L449 700H526L735 21L744 0H673ZM673 0L677 21L866 700H945V692L744 0H673ZM231 0L30 692V700H109L298 21L302 0H231ZM231 0L240 21L449 700H526L302 0H231Z" />
<glyph unicode="X" horiz-adv-x="545" d="M449 0L20 692V700H106L535 8V0H449ZM10 0V8L241 382L282 309L94 0H10ZM294 311L253 384L442 700H525V692L294 311Z" />
<glyph unicode="Y" horiz-adv-x="553" d="M239 0V273L10 692V700H94L298 313H258L461 700H543V692L314 273V0H239Z" />
<glyph unicode="Z" horiz-adv-x="562" d="M35 0V70L456 665L469 627H40V700H522V630L101 35L87 73H527V0H35Z" />
<glyph unicode="[" horiz-adv-x="290" d="M80 -200V710H255V637H155V-127H255V-200H80Z" />
<glyph unicode="\" horiz-adv-x="462" d="M462 -95H381L40 764H121L462 -95Z" />
<glyph unicode="]" horiz-adv-x="290" d="M210 -200H35V-127H135V637H35V710H210V-200Z" />
<glyph unicode="^" horiz-adv-x="474" d="M374 316L237 612L205 700H269L454 316H374ZM20 316L205 700H269L237 612L100 316H20Z" />
<glyph unicode="_" horiz-adv-x="594" d="M35 -117V-45H559V-117H35Z" />
<glyph unicode="`" horiz-adv-x="241" d="M205 581H131L30 718V726H130L205 581Z" />
<glyph unicode="a" horiz-adv-x="542" d="M228 -12Q177 -12 137 8T73 63T50 144Q50 209 96 249T225 296L417 310V240L242 227Q184 223 156 202T127 144Q127 108 156 85T233 61Q280 61 318 82T379 140T402 222V303Q402 363 366 401T267 440Q220 440 186 418T138
352H127L61 376Q85 443 139 478T268 513Q369 513 423 453T477 281V0H404V145L430 126Q418 86 388 55T317 6T228 -12Z" />
<glyph unicode="b" horiz-adv-x="601" d="M325 -12Q274 -12 231 8T157 66T111 152V348Q126 398 157 434T231 491T325 512Q392 512 445 478T529 385T561 250Q561 174 530 115T445 22T325 -12ZM75 0V720L147 729L150 721V313L136 250L148 187V0H75ZM322 61Q370 61
407 85T465 151T486 250Q486 306 465 348T407 415T322 439Q273 439 234 415T173 349T150 250Q150 194 172 152T234 85T322 61Z" />
<glyph unicode="c" horiz-adv-x="555" d="M289 -12Q216 -12 160 21T72 113T40 250Q40 328 71 387T159 479T289 512Q345 512 390 492T467 434T516 344L449 325H438Q420 378 381 408T289 439Q236 439 197 415T137 349T115 250Q115 195 136 152T197 85T289 61Q326
61 355 74T407 113T442 175H453L520 156Q502 103 469 65T390 8T289 -12Z" />
<glyph unicode="d" horiz-adv-x="601" d="M276 -12Q210 -12 157 22T72 115T40 250Q40 326 71 385T156 478T276 512Q327 512 370 492T444 435T490 348V152Q475 103 444 66T370 9T276 -12ZM279 61Q329 61 367 85T428 151T451 250Q451 306 429 348T368 415T279 439Q232
439 195 415T136 349T115 250Q115 194 136 152T194 85T279 61ZM453 0V187L465 250L451 313V720L523 729L526 721V0H453Z" />
<glyph unicode="e" horiz-adv-x="556" d="M283 -12Q212 -12 157 21T71 113T40 250Q40 328 70 387T155 479T281 512Q351 512 403 479T486 385T516 244V235L501 221H84V294H472L439 280Q435 330 413 365T357 420T281 439Q235 439 197 417T137 353T115 258V245Q115
191 136 150T196 85T283 61Q332 61 367 84T422 147H433L496 119Q468 59 413 24T283 -12Z" />
<glyph unicode="f" horiz-adv-x="328" d="M111 0V572Q111 640 151 680T253 720H308V658L303 647H266Q223 647 205 629T186 567V0H111ZM25 427V500H308V427H25Z" />
<glyph unicode="g" horiz-adv-x="520" d="M234 -200Q137 -200 84 -160T30 -52Q30 -10 50 23T111 74L150 33Q128 23 116 4T103 -39Q103 -79 136 -104T228 -130H297Q357 -130 392 -109T427 -48Q427 -19 405 -2T338 15H199Q160 15 129 29T79 68T60 127Q60 159 78
186T139 229L180 190Q153 184 142 169T131 135Q131 110 150 97T203 83H338Q412 83 455 47T499 -49Q499 -119 444 -159T297 -200H234ZM268 156Q210 156 166 178T96 241T71 334Q71 387 96 427T165 489T268 512Q327 512 371 490T440 427T465 334Q465 282 440 242T371
179T268 156ZM268 224Q324 224 358 254T393 334Q393 383 359 413T268 444Q212 444 178 414T143 334Q143 285 177 255T268 224ZM402 440L352 475Q352 513 368 542T410 589T470 606Q477 606 486 606T500 603V533L495 522Q485 525 472 525Q437 525 420 502T402 440Z"
/>
<glyph unicode="h" horiz-adv-x="576" d="M75 0V720L147 729L150 721V355L126 374Q139 416 169 447T239 495T326 512Q380 512 422 489T487 421T511 309V0H436V292Q436 349 419 380T374 425T309 438Q268 438 232 418T173 361T150 270V0H75Z" />
<glyph unicode="i" horiz-adv-x="215" d="M70 0V500H145V0H70ZM108 598Q85 598 69 614T53 653Q53 676 69 692T108 708Q131 708 147 692T163 653Q163 630 147 614T108 598Z" />
<glyph unicode="j" horiz-adv-x="215" d="M-59 -200V-138L-54 -127H-33Q23 -127 46 -104T70 -24V500H145V-30Q145 -108 99 -154T-18 -200H-59ZM108 598Q85 598 69 614T53 653Q53 676 69 692T108 708Q131 708 147 692T163 653Q163 630 147 614T108 598Z" />
<glyph unicode="k" horiz-adv-x="502" d="M105 103V202L413 500H502V492L105 103ZM75 0V720L147 729L150 721V0H75ZM419 0L234 261L283 311L502 8V0H419Z" />
<glyph unicode="l" horiz-adv-x="225" d="M75 0V720L147 729L150 721V0H75Z" />
<glyph unicode="m" horiz-adv-x="912" d="M70 0V500H143V355L121 374Q134 416 164 447T234 495T316 512Q382 512 429 475T491 366H457Q469 410 499 442T572 493T667 512Q719 512 759 489T823 421T847 309V0H772V292Q772 349 755 380T711 425T650 438Q614 438 579
419T520 363T496 270V0H421V292Q421 349 404 380T360 425T299 438Q263 438 228 419T169 362T145 270V0H70Z" />
<glyph unicode="n" horiz-adv-x="571" d="M70 0V500H143V355L121 374Q134 416 164 447T234 495T321 512Q375 512 417 489T482 421T506 309V0H431V292Q431 349 414 380T369 425T304 438Q263 438 227 418T168 361T145 270V0H70Z" />
<glyph unicode="o" horiz-adv-x="572" d="M286 -12Q214 -12 159 21T72 113T40 250Q40 328 71 387T158 479T286 512Q359 512 414 479T500 387T532 250Q532 172 501 113T414 21T286 -12ZM286 61Q336 61 374 84T435 150T457 250Q457 308 435 350T375 415T286 439Q236
439 198 416T137 350T115 250Q115 193 137 151T197 85T286 61Z" />
<glyph unicode="p" horiz-adv-x="596" d="M320 -12Q269 -12 226 8T152 66T106 152V348Q121 398 152 434T226 491T320 512Q387 512 440 478T524 385T556 250Q556 174 525 115T440 22T320 -12ZM70 -200V500H143V313L131 250L145 187V-200H70ZM317 61Q365 61 402
85T460 151T481 250Q481 306 460 348T402 415T317 439Q268 439 229 415T168 349T145 250Q145 194 167 152T229 85T317 61Z" />
<glyph unicode="q" horiz-adv-x="596" d="M276 -12Q210 -12 157 22T72 115T40 250Q40 326 71 385T156 478T276 512Q327 512 370 492T444 435T490 348V152Q475 103 444 66T370 9T276 -12ZM526 -200H451V187L465 250L453 313V500H526V-200ZM279 61Q329 61 367 85T428
151T451 250Q451 306 429 348T368 415T279 439Q232 439 195 415T136 349T115 250Q115 194 136 152T194 85T279 61Z" />
<glyph unicode="r" horiz-adv-x="358" d="M70 0V500H143V355L121 374Q138 432 186 466T296 500H348V427H284Q243 427 212 407T163 352T145 270V0H70Z" />
<glyph unicode="s" horiz-adv-x="463" d="M230 -12Q153 -12 100 25T30 131L99 148L110 146Q121 106 156 84T238 61Q285 61 318 82T352 139Q352 168 333 185T274 212L182 233Q112 249 80 284T47 369Q47 411 70 443T133 493T226 512Q302 512 354 474T423 367L353
352L342 354Q332 395 299 417T224 439Q181 439 153 420T124 372Q124 347 142 331T202 305L295 284Q364 268 396 233T429 144Q429 96 403 61T333 7T230 -12Z" />
<glyph unicode="t" horiz-adv-x="378" d="M253 0Q191 0 151 40T111 148V636H186V153Q186 109 204 91T266 73H328L333 62V0H253ZM25 427V500H333V427H25Z" />
<glyph unicode="u" horiz-adv-x="571" d="M501 500V0H428V145L450 126Q437 84 408 53T337 5T250 -12Q196 -12 155 11T89 79T65 191V500H140V208Q140 152 157 120T203 75T267 62Q309 62 345 82T403 140T426 230V500H501Z" />
<glyph unicode="v" horiz-adv-x="499" d="M239 0V76L411 500H489V492L286 0H239ZM213 0L10 492V500H88L260 76V0H213Z" />
<glyph unicode="w" horiz-adv-x="762" d="M176 0L15 492V500H90L224 80L246 0H176ZM176 0L204 80L347 500H415V492L246 0H176ZM516 0L347 492V500H415L558 80L586 0H516ZM516 0L538 80L671 500H747V492L586 0H516Z" />
<glyph unicode="x" horiz-adv-x="446" d="M356 0L5 492V500H90L441 8V0H356ZM5 0V8L203 284L249 226L90 0H5ZM255 224L209 284L359 500H441V492L255 224Z" />
<glyph unicode="y" horiz-adv-x="507" d="M131 -200V-192L212 0L238 55L419 500H497V492L207 -200H131ZM213 0L10 492V500H88L259 76V0H213Z" />
<glyph unicode="z" horiz-adv-x="456" d="M25 0V70L369 466L385 427H28V500H431V431L86 33L71 73H431V0H25Z" />
<glyph unicode="{" horiz-adv-x="371" d="M55 216V294Q93 294 116 310T150 352T161 406V561Q161 606 176 639T218 691T282 710H336V637H297Q269 637 253 617T236 563V403Q236 366 225 333T191 279T131 255L55 216ZM282 -200Q246 -200 219 -182T176 -129T161 -51V104Q161
132 151 157T117 199T55 216V294L131 255Q168 253 191 232T225 177T236 107V-53Q236 -87 252 -107T297 -127H336V-200H282Z" />
<glyph unicode="|" horiz-adv-x="235" d="M80 -130V780H155V-130H80Z" />
<glyph unicode="}" horiz-adv-x="371" d="M316 216L240 255Q203 258 180 279T146 333T135 403V563Q135 597 119 617T74 637H35V710H89Q126 710 153 692T195 640T210 561V406Q210 378 220 353T254 311T316 294V216ZM89 -200H35V-127H74Q102 -127 118 -107T135 -53V107Q135
144 146 177T180 231T240 255L316 294V216Q278 216 255 200T221 158T210 104V-51Q210 -95 195 -129T153 -181T89 -200Z" />
<glyph unicode="~" horiz-adv-x="534" d="M350 278Q322 278 301 288T261 311T224 335T183 345Q160 345 146 327T126 279H50Q56 319 72 351T116 402T184 421Q212 421 233 411T273 388T310 364T351 354Q374 354 389 372T408 420H484Q478 380 462 348T419 297T350 278Z" />
<glyph unicode="&#xa0;" horiz-adv-x="220" />
<glyph unicode="&#xa1;" horiz-adv-x="296" d="M113 301H183L193 -200H103L113 301ZM148 508Q173 508 189 492T206 450Q206 425 190 408T148 391Q123 391 107 408T90 450Q90 475 106 491T148 508Z" />
<glyph unicode="&#xa2;" horiz-adv-x="555" d="M243 -106V48H318V-106H243ZM243 463V606H318V463H243ZM289 -12Q216 -12 160 21T72 113T40 250Q40 328 71 387T159 479T289 512Q345 512 390 492T467 434T516 344L449 325H438Q420 378 381 408T289 439Q236 439 197
415T137 349T115 250Q115 195 136 152T197 85T289 61Q326 61 355 74T407 113T442 175H453L520 156Q502 103 469 65T390 8T289 -12Z" />
<glyph unicode="&#xa3;" horiz-adv-x="566" d="M45 0V73Q95 98 120 138T146 218Q146 262 135 295T109 359T83 426T71 510Q71 569 99 614T177 686T289 712Q344 712 391 688T472 619T516 516L446 501L435 503Q423 565 381 602T289 639Q249 639 218 623T169 578T151
509Q151 469 161 436T185 371T208 302T219 218Q219 179 202 139T146 64T45 0ZM45 0V73H516V0H45ZM45 294V367H398V294H45Z" />
<glyph unicode="&#xa5;" horiz-adv-x="553" d="M58 265V338H506V265H58ZM58 101V174H506V101H58ZM239 0V273L10 692V700H94L298 313H258L461 700H543V692L314 273V0H239Z" />
<glyph unicode="&#xa7;" horiz-adv-x="598" d="M466 53L411 109Q438 126 453 151T468 207Q468 256 438 279T357 317L227 353Q141 376 102 423T62 526Q62 581 90 622T170 688T287 712Q352 712 404 688T491 619T537 516L467 501L456 503Q443 565 397 602T287 639Q221
639 182 608T142 525Q142 492 167 467T251 427L381 391Q459 372 503 326T548 211Q548 161 527 121T466 53ZM306 -212Q242 -212 189 -188T102 -119T56 -16L126 -1L137 -3Q150 -65 196 -102T306 -139Q372 -139 411 -108T451 -25Q451 8 426 33T342 73L212 109Q134
128 90 174T45 289Q45 339 66 379T127 447L182 391Q155 374 140 349T125 293Q125 244 155 221T236 183L366 147Q452 124 491 77T531 -26Q531 -80 503 -122T424 -188T306 -212Z" />
<glyph unicode="&#xa8;" horiz-adv-x="340" d="M267 598Q244 598 228 614T212 653Q212 676 228 692T267 708Q290 708 306 692T322 653Q322 630 306 614T267 598ZM85 598Q62 598 46 614T30 653Q30 676 46 692T85 708Q108 708 124 692T140 653Q140 630 124 614T85 598Z" />
<glyph unicode="&#xa9;" horiz-adv-x="824" d="M412 -12Q336 -12 270 15T155 92T78 207T50 350Q50 427 77 493T154 608T270 684T412 712Q488 712 554 685T669 608T746 493T774 350Q774 273 747 207T670 92T554 16T412 -12ZM412 57Q473 57 525 79T617 141T679 234T701
350Q701 413 679 466T618 559T526 621T412 643Q351 643 299 621T207 559T145 466T123 350Q123 287 145 234T206 141T298 79T412 57ZM421 134Q362 134 316 160T243 236T216 350Q216 416 242 464T315 539T421 566Q477 566 528 532T602 435L544 418L538 419Q520 456
492 477T422 499Q383 499 353 481T304 430T286 350Q286 305 304 272T352 220T422 201Q463 201 491 222T538 281L544 282L602 265Q580 203 529 169T421 134Z" />
<glyph unicode="&#xaa;" horiz-adv-x="387" d="M160 341Q106 341 71 371T35 450Q35 497 68 526T162 560L298 571V514L174 504Q137 501 119 488T101 452Q101 430 120 416T169 401Q199 401 224 415T263 453T278 506V564Q278 602 253 627T189 652Q158 652 136 636T106
594H98L42 611Q58 661 97 686T189 711Q261 711 301 669T342 548V350H282V452L305 443Q292 398 252 370T160 341Z" />
<glyph unicode="&#xab;" horiz-adv-x="377" d="M295 22Q274 38 253 61T218 117T203 195Q203 240 217 273T253 329T295 368L332 339V335Q312 308 298 273T284 195Q284 153 298 118T332 55V51L295 22ZM137 22Q116 38 95 61T60 117T45 195Q45 240 59 273T95 329T137
368L174 339V335Q154 308 140 273T126 195Q126 153 140 118T174 55V51L137 22Z" />
<glyph unicode="&#xae;" horiz-adv-x="545" d="M273 287Q213 287 165 315T89 391T60 499Q60 560 88 608T165 684T273 712Q333 712 381 684T457 608T485 499Q485 439 457 391T381 315T273 287ZM273 338Q318 338 354 359T411 416T433 499Q433 546 412 582T354 640T273
661Q228 661 192 640T135 583T113 499Q113 453 134 417T192 359T273 338ZM308 397L256 491H306L357 405V397H308ZM197 397V602H286Q319 602 337 586T356 539Q356 510 338 493T286 476H244V397H197ZM244 514H282Q294 514 302 520T311 538Q311 551 303 555T282 560H244V514Z"
/>
<glyph unicode="&#xaf;" horiz-adv-x="366" d="M30 617V690H336V617H30Z" />
<glyph unicode="&#xb0;" horiz-adv-x="344" d="M172 428Q132 428 100 446T49 497T30 570Q30 611 49 643T100 693T172 712Q212 712 244 694T295 643T314 570Q314 530 295 498T244 447T172 428ZM172 490Q205 490 228 513T251 570Q251 605 228 627T172 650Q139 650
116 628T93 570Q93 536 116 513T172 490Z" />
<glyph unicode="&#xb1;" horiz-adv-x="548" d="M239 179V587H311V179H239ZM50 80V152H498V80H50ZM50 348V420H498V348H50Z" />
<glyph unicode="&#xb4;" horiz-adv-x="241" d="M30 581L105 726H205V718L104 581H30Z" />
<glyph unicode="&#xb6;" horiz-adv-x="610" d="M266 286Q168 286 109 342T50 493Q50 588 109 644T266 700H487V626H340V286H266ZM301 -200V700H376V-200H301ZM455 -200V700H530V-200H455Z" />
<glyph unicode="&#xb7;" horiz-adv-x="170" d="M85 321Q62 321 46 337T30 376Q30 399 46 415T85 431Q108 431 124 415T140 376Q140 353 124 337T85 321Z" />
<glyph unicode="&#xb8;" horiz-adv-x="209" d="M86 -205Q74 -205 60 -202T30 -188L46 -140L55 -138Q63 -142 70 -144T83 -146Q99 -146 108 -138T118 -117Q118 -103 109 -95T84 -86Q69 -86 59 -94L31 -54L77 13H148L83 -74L76 -36Q81 -35 86 -35T96 -34Q131 -34
155 -58T179 -117Q179 -155 152 -180T86 -205Z" />
<glyph unicode="&#xba;" horiz-adv-x="432" d="M216 340Q165 340 125 363T63 429T40 526Q40 581 62 622T124 687T216 711Q268 711 307 688T369 623T392 526Q392 471 370 429T308 364T216 340ZM216 401Q266 401 296 435T327 526Q327 582 297 616T216 650Q167 650
136 616T105 526Q105 469 136 435T216 401Z" />
<glyph unicode="&#xbb;" horiz-adv-x="377" d="M82 22L45 51V55Q65 82 79 117T93 195Q93 237 79 272T45 335V339L82 368Q103 353 124 330T159 273T174 195Q174 150 160 117T124 61T82 22ZM240 22L203 51V55Q223 82 237 117T251 195Q251 237 237 272T203 335V339L240
368Q261 353 282 330T317 273T332 195Q332 150 318 117T282 61T240 22Z" />
<glyph unicode="&#xbc;" horiz-adv-x="733" d="M175 338V610L105 555H101V644L177 702H250V338H175ZM130 0L565 700H643L208 0H130ZM581 -2V70H417V138L584 362H656V141H700V70H656V-2H581ZM506 141H581V242L506 141Z" />
<glyph unicode="&#xbd;" horiz-adv-x="783" d="M175 338V610L105 555H101V644L177 702H250V338H175ZM130 0L565 700H643L208 0H130ZM485 -2V64L612 176Q634 195 643 214T653 249Q653 272 639 286T603 300Q577 300 563 281T548 227L543 226L477 239Q477 277 494
307T540 354T606 371Q659 371 693 336T728 247Q728 218 713 188T658 122L599 69H739V-2H485Z" />
<glyph unicode="&#xbe;" horiz-adv-x="753" d="M180 329Q121 329 84 363T42 459L111 473L117 472Q117 442 133 421T180 400Q203 400 218 413T234 448Q234 470 219 482T178 494H150V558H179Q199 558 211 568T224 598Q224 617 211 629T177 641Q156 641 141 627T120
583L114 582L49 595Q54 645 89 678T179 711Q229 711 264 682T299 608Q299 575 279 552T227 524V535Q268 534 288 506T309 444Q309 395 273 362T180 329ZM150 0L585 700H663L228 0H150ZM601 -2V70H437V138L604 362H676V141H720V70H676V-2H601ZM526 141H601V242L526
141Z" />
<glyph unicode="&#xbf;" horiz-adv-x="496" d="M303 301Q303 242 289 205T253 146T207 107T160 76T124 37T110 -23Q110 -75 147 -107T243 -139Q280 -139 312 -122T365 -72T390 1L401 3L471 -12Q465 -71 433 -116T351 -186T243 -212Q182 -212 134 -188T58 -122T30
-24Q30 20 44 49T82 98T131 135T180 173T218 224T233 301H303ZM268 508Q293 508 309 492T326 450Q326 425 310 408T268 391Q243 391 227 408T210 450Q210 475 226 491T268 508Z" />
<glyph unicode="&#xc0;" horiz-adv-x="617" d="M531 0L278 679L271 700H346L612 8V0H531ZM5 0V8L271 700H346L339 679L86 0H5ZM103 185L133 258H494L524 185H103ZM336 771H262L161 908V916H261L336 771Z" />
<glyph unicode="&#xc1;" horiz-adv-x="617" d="M531 0L278 679L271 700H346L612 8V0H531ZM5 0V8L271 700H346L339 679L86 0H5ZM103 185L133 258H494L524 185H103ZM296 771L371 916H471V908L370 771H296Z" />
<glyph unicode="&#xc2;" horiz-adv-x="617" d="M531 0L278 679L271 700H346L612 8V0H531ZM5 0V8L271 700H346L339 679L86 0H5ZM103 185L133 258H494L524 185H103ZM153 771L259 916H358L464 771H379L308 859L237 771H153Z" />
<glyph unicode="&#xc3;" horiz-adv-x="617" d="M531 0L278 679L271 700H346L612 8V0H531ZM5 0V8L271 700H346L339 679L86 0H5ZM103 185L133 258H494L524 185H103ZM375 782Q354 782 337 790T306 809T277 828T248 836Q231 836 221 821T211 783H147Q147 837 173 871T243
905Q264 905 281 897T312 878T341 859T370 851Q387 851 397 866T407 904H471Q471 850 445 816T375 782Z" />
<glyph unicode="&#xc4;" horiz-adv-x="617" d="M531 0L278 679L271 700H346L612 8V0H531ZM5 0V8L271 700H346L339 679L86 0H5ZM103 185L133 258H494L524 185H103ZM406 788Q383 788 367 804T351 843Q351 866 367 882T406 898Q429 898 445 882T461 843Q461 820 445
804T406 788ZM224 788Q201 788 185 804T169 843Q169 866 185 882T224 898Q247 898 263 882T279 843Q279 820 263 804T224 788Z" />
<glyph unicode="&#xc5;" horiz-adv-x="617" d="M531 0L278 679L271 700H346L612 8V0H531ZM5 0V8L271 700H346L339 679L86 0H5ZM103 185L133 258H494L524 185H103ZM309 688Q276 688 249 703T207 744T191 803Q191 836 206 862T249 903T309 918Q343 918 369 903T411
862T427 803Q427 771 412 745T370 703T309 688ZM309 747Q333 747 349 763T365 803Q365 826 349 842T309 859Q285 859 269 843T253 803Q253 780 269 764T309 747Z" />
<glyph unicode="&#xc6;" horiz-adv-x="911" d="M-10 0L-9 9L378 700H453L449 679L77 0H-10ZM120 185L163 258H449V185H120ZM420 0V700H495V0H420ZM459 0V73H861V0H459ZM459 318V391H841V318H459ZM459 627V700H861V627H459Z" />
<glyph unicode="&#xc7;" horiz-adv-x="709" d="M371 -12Q278 -12 206 33T92 159T50 350Q50 460 91 541T205 667T371 712Q472 712 551 659T669 506L604 487L593 489Q562 563 505 601T374 639Q303 639 247 604T159 504T127 350Q127 261 159 196T247 96T374 61Q448
61 505 99T593 211L604 213L669 194Q630 95 551 42T371 -12ZM347 -205Q335 -205 321 -202T291 -188L307 -140L316 -138Q324 -142 331 -144T344 -146Q360 -146 369 -138T379 -117Q379 -103 370 -95T345 -86Q330 -86 320 -94L292 -54L338 13H409L344 -74L337 -36Q342
-35 347 -35T357 -34Q392 -34 416 -58T440 -117Q440 -155 413 -180T347 -205Z" />
<glyph unicode="&#xc8;" horiz-adv-x="571" d="M80 0V700H155V0H80ZM119 0V73H521V0H119ZM119 318V391H501V318H119ZM119 627V700H521V627H119ZM315 771H241L140 908V916H240L315 771Z" />
<glyph unicode="&#xc9;" horiz-adv-x="571" d="M80 0V700H155V0H80ZM119 0V73H521V0H119ZM119 318V391H501V318H119ZM119 627V700H521V627H119ZM255 771L330 916H430V908L329 771H255Z" />
<glyph unicode="&#xca;" horiz-adv-x="571" d="M80 0V700H155V0H80ZM119 0V73H521V0H119ZM119 318V391H501V318H119ZM119 627V700H521V627H119ZM132 771L238 916H337L443 771H358L287 859L216 771H132Z" />
<glyph unicode="&#xcb;" horiz-adv-x="571" d="M80 0V700H155V0H80ZM119 0V73H521V0H119ZM119 318V391H501V318H119ZM119 627V700H521V627H119ZM385 788Q362 788 346 804T330 843Q330 866 346 882T385 898Q408 898 424 882T440 843Q440 820 424 804T385 788ZM203
788Q180 788 164 804T148 843Q148 866 164 882T203 898Q226 898 242 882T258 843Q258 820 242 804T203 788Z" />
<glyph unicode="&#xcc;" horiz-adv-x="235" d="M80 0V700H155V0H80ZM145 771H71L-30 908V916H70L145 771Z" />
<glyph unicode="&#xcd;" horiz-adv-x="235" d="M80 0V700H155V0H80ZM85 771L160 916H260V908L159 771H85Z" />
<glyph unicode="&#xce;" horiz-adv-x="235" d="M80 0V700H155V0H80ZM-38 771L68 916H167L273 771H188L117 859L46 771H-38Z" />
<glyph unicode="&#xcf;" horiz-adv-x="235" d="M80 0V700H155V0H80ZM215 788Q192 788 176 804T160 843Q160 866 176 882T215 898Q238 898 254 882T270 843Q270 820 254 804T215 788ZM33 788Q10 788 -6 804T-22 843Q-22 866 -6 882T33 898Q56 898 72 882T88 843Q88
820 72 804T33 788Z" />
<glyph unicode="&#xd0;" horiz-adv-x="682" d="M116 0V73H315Q391 73 444 107T526 204T555 350Q555 435 527 497T445 593T315 627H116V700H315Q414 700 485 656T594 534T632 350Q632 245 594 167T485 44T315 0H116ZM80 0V700H155V0H80ZM256 314V387H568V314H256Z" />
<glyph unicode="&#xd1;" horiz-adv-x="694" d="M539 0L80 679V700H155L614 21V0H539ZM80 0V700H155V0H80ZM539 0V700H614V0H539ZM428 782Q407 782 390 790T359 809T330 828T301 836Q284 836 274 821T264 783H200Q200 837 226 871T296 905Q317 905 334 897T365
878T394 859T423 851Q440 851 450 866T460 904H524Q524 850 498 816T428 782Z" />
<glyph unicode="&#xd2;" horiz-adv-x="760" d="M380 -12Q285 -12 210 33T93 160T50 350Q50 458 92 539T210 666T380 712Q476 712 550 667T667 540T710 350Q710 242 668 161T551 34T380 -12ZM380 61Q452 61 509 97T600 198T633 350Q633 438 600 503T510 603T380
639Q308 639 251 604T161 503T127 350Q127 263 160 198T251 97T380 61ZM407 771H333L232 908V916H332L407 771Z" />
<glyph unicode="&#xd3;" horiz-adv-x="760" d="M380 -12Q285 -12 210 33T93 160T50 350Q50 458 92 539T210 666T380 712Q476 712 550 667T667 540T710 350Q710 242 668 161T551 34T380 -12ZM380 61Q452 61 509 97T600 198T633 350Q633 438 600 503T510 603T380
639Q308 639 251 604T161 503T127 350Q127 263 160 198T251 97T380 61ZM347 771L422 916H522V908L421 771H347Z" />
<glyph unicode="&#xd4;" horiz-adv-x="760" d="M380 -12Q285 -12 210 33T93 160T50 350Q50 458 92 539T210 666T380 712Q476 712 550 667T667 540T710 350Q710 242 668 161T551 34T380 -12ZM380 61Q452 61 509 97T600 198T633 350Q633 438 600 503T510 603T380
639Q308 639 251 604T161 503T127 350Q127 263 160 198T251 97T380 61ZM224 771L330 916H429L535 771H450L379 859L308 771H224Z" />
<glyph unicode="&#xd5;" horiz-adv-x="760" d="M380 -12Q285 -12 210 33T93 160T50 350Q50 458 92 539T210 666T380 712Q476 712 550 667T667 540T710 350Q710 242 668 161T551 34T380 -12ZM380 61Q452 61 509 97T600 198T633 350Q633 438 600 503T510 603T380
639Q308 639 251 604T161 503T127 350Q127 263 160 198T251 97T380 61ZM446 782Q425 782 408 790T377 809T348 828T319 836Q302 836 292 821T282 783H218Q218 837 244 871T314 905Q335 905 352 897T383 878T412 859T441 851Q458 851 468 866T478 904H542Q542 850
516 816T446 782Z" />
<glyph unicode="&#xd6;" horiz-adv-x="760" d="M380 -12Q285 -12 210 33T93 160T50 350Q50 458 92 539T210 666T380 712Q476 712 550 667T667 540T710 350Q710 242 668 161T551 34T380 -12ZM380 61Q452 61 509 97T600 198T633 350Q633 438 600 503T510 603T380
639Q308 639 251 604T161 503T127 350Q127 263 160 198T251 97T380 61ZM477 788Q454 788 438 804T422 843Q422 866 438 882T477 898Q500 898 516 882T532 843Q532 820 516 804T477 788ZM295 788Q272 788 256 804T240 843Q240 866 256 882T295 898Q318 898 334 882T350
843Q350 820 334 804T295 788Z" />
<glyph unicode="&#xd7;" horiz-adv-x="548" d="M435 138L62 511L113 562L486 189L435 138ZM113 138L62 189L435 562L486 511L113 138Z" />
<glyph unicode="&#xd8;" horiz-adv-x="760" d="M380 -12Q285 -12 210 33T93 160T50 350Q50 458 92 539T210 666T380 712Q476 712 550 667T667 540T710 350Q710 242 668 161T551 34T380 -12ZM380 61Q452 61 509 97T600 198T633 350Q633 438 600 503T510 603T380
639Q308 639 251 604T161 503T127 350Q127 263 160 198T251 97T380 61ZM145 -95L83 -59L613 794L676 758L145 -95Z" />
<glyph unicode="&#xd9;" horiz-adv-x="648" d="M324 -12Q245 -12 188 20T101 112T70 258V700H145V256Q145 162 191 112T324 61Q411 61 457 111T503 256V700H578V258Q578 173 548 113T460 20T324 -12ZM351 771H277L176 908V916H276L351 771Z" />
<glyph unicode="&#xda;" horiz-adv-x="648" d="M324 -12Q245 -12 188 20T101 112T70 258V700H145V256Q145 162 191 112T324 61Q411 61 457 111T503 256V700H578V258Q578 173 548 113T460 20T324 -12ZM291 771L366 916H466V908L365 771H291Z" />
<glyph unicode="&#xdb;" horiz-adv-x="648" d="M324 -12Q245 -12 188 20T101 112T70 258V700H145V256Q145 162 191 112T324 61Q411 61 457 111T503 256V700H578V258Q578 173 548 113T460 20T324 -12ZM168 771L274 916H373L479 771H394L323 859L252 771H168Z" />
<glyph unicode="&#xdc;" horiz-adv-x="648" d="M324 -12Q245 -12 188 20T101 112T70 258V700H145V256Q145 162 191 112T324 61Q411 61 457 111T503 256V700H578V258Q578 173 548 113T460 20T324 -12ZM421 788Q398 788 382 804T366 843Q366 866 382 882T421 898Q444
898 460 882T476 843Q476 820 460 804T421 788ZM239 788Q216 788 200 804T184 843Q184 866 200 882T239 898Q262 898 278 882T294 843Q294 820 278 804T239 788Z" />
<glyph unicode="&#xdd;" horiz-adv-x="553" d="M239 0V273L10 692V700H94L298 313H258L461 700H543V692L314 273V0H239ZM250 771L325 916H425V908L324 771H250Z" />
<glyph unicode="&#xde;" horiz-adv-x="590" d="M459 350Q459 412 423 447T324 483H123V557H324Q422 557 481 501T540 350H459ZM80 0V700H155V0H80ZM123 143V217H324Q387 217 423 252T459 350H540Q540 256 481 200T324 143H123Z" />
<glyph unicode="&#xdf;" horiz-adv-x="539" d="M65 0V461Q65 554 96 609T176 688T279 713Q330 713 375 691T447 629T475 532Q475 453 429 411T308 362V383Q368 383 412 361T480 298T504 201Q504 142 477 97T399 26T275 0H214V73H275Q323 73 357 89T408 136T426
208Q426 270 386 303T275 336H214V409H264Q301 409 331 423T379 463T397 527Q397 562 380 587T336 626T275 640Q241 640 210 625T160 572T140 471V0H65Z" />
<glyph unicode="&#xe0;" horiz-adv-x="542" d="M228 -12Q177 -12 137 8T73 63T50 144Q50 209 96 249T225 296L417 310V240L242 227Q184 223 156 202T127 144Q127 108 156 85T233 61Q280 61 318 82T379 140T402 222V303Q402 363 366 401T267 440Q220 440 186 418T138
352H127L61 376Q85 443 139 478T268 513Q369 513 423 453T477 281V0H404V145L430 126Q418 86 388 55T317 6T228 -12ZM328 581H254L153 718V726H253L328 581Z" />
<glyph unicode="&#xe1;" horiz-adv-x="542" d="M228 -12Q177 -12 137 8T73 63T50 144Q50 209 96 249T225 296L417 310V240L242 227Q184 223 156 202T127 144Q127 108 156 85T233 61Q280 61 318 82T379 140T402 222V303Q402 363 366 401T267 440Q220 440 186 418T138
352H127L61 376Q85 443 139 478T268 513Q369 513 423 453T477 281V0H404V145L430 126Q418 86 388 55T317 6T228 -12ZM220 581L295 726H395V718L294 581H220Z" />
<glyph unicode="&#xe2;" horiz-adv-x="542" d="M228 -12Q177 -12 137 8T73 63T50 144Q50 209 96 249T225 296L417 310V240L242 227Q184 223 156 202T127 144Q127 108 156 85T233 61Q280 61 318 82T379 140T402 222V303Q402 363 366 401T267 440Q220 440 186 418T138
352H127L61 376Q85 443 139 478T268 513Q369 513 423 453T477 281V0H404V145L430 126Q418 86 388 55T317 6T228 -12ZM122 581L228 726H327L433 581H348L277 669L206 581H122Z" />
<glyph unicode="&#xe3;" horiz-adv-x="542" d="M228 -12Q177 -12 137 8T73 63T50 144Q50 209 96 249T225 296L417 310V240L242 227Q184 223 156 202T127 144Q127 108 156 85T233 61Q280 61 318 82T379 140T402 222V303Q402 363 366 401T267 440Q220 440 186 418T138
352H127L61 376Q85 443 139 478T268 513Q369 513 423 453T477 281V0H404V145L430 126Q418 86 388 55T317 6T228 -12ZM344 592Q323 592 306 600T275 619T246 638T217 646Q200 646 190 631T180 593H116Q116 647 142 681T212 715Q233 715 250 707T281 688T310 669T339
661Q356 661 366 676T376 714H440Q440 660 414 626T344 592Z" />
<glyph unicode="&#xe4;" horiz-adv-x="542" d="M228 -12Q177 -12 137 8T73 63T50 144Q50 209 96 249T225 296L417 310V240L242 227Q184 223 156 202T127 144Q127 108 156 85T233 61Q280 61 318 82T379 140T402 222V303Q402 363 366 401T267 440Q220 440 186 418T138
352H127L61 376Q85 443 139 478T268 513Q369 513 423 453T477 281V0H404V145L430 126Q418 86 388 55T317 6T228 -12ZM369 598Q346 598 330 614T314 653Q314 676 330 692T369 708Q392 708 408 692T424 653Q424 630 408 614T369 598ZM187 598Q164 598 148 614T132
653Q132 676 148 692T187 708Q210 708 226 692T242 653Q242 630 226 614T187 598Z" />
<glyph unicode="&#xe5;" horiz-adv-x="542" d="M228 -12Q177 -12 137 8T73 63T50 144Q50 209 96 249T225 296L417 310V240L242 227Q184 223 156 202T127 144Q127 108 156 85T233 61Q280 61 318 82T379 140T402 222V303Q402 363 366 401T267 440Q220 440 186 418T138
352H127L61 376Q85 443 139 478T268 513Q369 513 423 453T477 281V0H404V145L430 126Q418 86 388 55T317 6T228 -12ZM278 543Q245 543 218 558T176 599T160 658Q160 691 175 717T218 758T278 773Q312 773 338 758T380 717T396 658Q396 626 381 600T339 558T278
543ZM278 602Q302 602 318 618T334 658Q334 681 318 697T278 714Q254 714 238 698T222 658Q222 635 238 619T278 602Z" />
<glyph unicode="&#xe6;" horiz-adv-x="920" d="M647 -12Q576 -12 521 21T435 113T404 250Q404 328 434 387T519 479T645 512Q715 512 767 480T850 388T880 248V239L865 225H448V298H836L803 284Q799 334 777 368T721 421T645 439Q599 439 561 417T501 353T479
258V245Q479 191 500 150T560 85T647 61Q696 61 731 84T786 147H797L860 119Q832 59 777 24T647 -12ZM228 -12Q177 -12 137 8T73 63T50 144Q50 190 72 224T135 278T229 298H448V225H242Q182 225 155 204T127 144Q127 108 156 85T233 61Q280 61 319 82T381 140T404
222V303Q404 363 367 401T267 440Q220 440 186 418T138 352H127L61 376Q85 443 139 478T268 513Q371 513 425 453T479 281V126H406L446 140Q431 95 399 61T323 7T228 -12Z" />
<glyph unicode="&#xe7;" horiz-adv-x="555" d="M289 -12Q216 -12 160 21T72 113T40 250Q40 328 71 387T159 479T289 512Q345 512 390 492T467 434T516 344L449 325H438Q420 378 381 408T289 439Q236 439 197 415T137 349T115 250Q115 195 136 152T197 85T289 61Q326
61 355 74T407 113T442 175H453L520 156Q502 103 469 65T390 8T289 -12ZM277 -205Q265 -205 251 -202T221 -188L237 -140L246 -138Q254 -142 261 -144T274 -146Q290 -146 299 -138T309 -117Q309 -103 300 -95T275 -86Q260 -86 250 -94L222 -54L268 13H339L274 -74L267
-36Q272 -35 277 -35T287 -34Q322 -34 346 -58T370 -117Q370 -155 343 -180T277 -205Z" />
<glyph unicode="&#xe8;" horiz-adv-x="556" d="M283 -12Q212 -12 157 21T71 113T40 250Q40 328 70 387T155 479T281 512Q351 512 403 479T486 385T516 244V235L501 221H84V294H472L439 280Q435 330 413 365T357 420T281 439Q235 439 197 417T137 353T115 258V245Q115
191 136 150T196 85T283 61Q332 61 367 84T422 147H433L496 119Q468 59 413 24T283 -12ZM331 581H257L156 718V726H256L331 581Z" />
<glyph unicode="&#xe9;" horiz-adv-x="556" d="M283 -12Q212 -12 157 21T71 113T40 250Q40 328 70 387T155 479T281 512Q351 512 403 479T486 385T516 244V235L501 221H84V294H472L439 280Q435 330 413 365T357 420T281 439Q235 439 197 417T137 353T115 258V245Q115
191 136 150T196 85T283 61Q332 61 367 84T422 147H433L496 119Q468 59 413 24T283 -12ZM223 581L298 726H398V718L297 581H223Z" />
<glyph unicode="&#xea;" horiz-adv-x="556" d="M283 -12Q212 -12 157 21T71 113T40 250Q40 328 70 387T155 479T281 512Q351 512 403 479T486 385T516 244V235L501 221H84V294H472L439 280Q435 330 413 365T357 420T281 439Q235 439 197 417T137 353T115 258V245Q115
191 136 150T196 85T283 61Q332 61 367 84T422 147H433L496 119Q468 59 413 24T283 -12ZM125 581L231 726H330L436 581H351L280 669L209 581H125Z" />
<glyph unicode="&#xeb;" horiz-adv-x="556" d="M283 -12Q212 -12 157 21T71 113T40 250Q40 328 70 387T155 479T281 512Q351 512 403 479T486 385T516 244V235L501 221H84V294H472L439 280Q435 330 413 365T357 420T281 439Q235 439 197 417T137 353T115 258V245Q115
191 136 150T196 85T283 61Q332 61 367 84T422 147H433L496 119Q468 59 413 24T283 -12ZM372 598Q349 598 333 614T317 653Q317 676 333 692T372 708Q395 708 411 692T427 653Q427 630 411 614T372 598ZM190 598Q167 598 151 614T135 653Q135 676 151 692T190 708Q213
708 229 692T245 653Q245 630 229 614T190 598Z" />
<glyph unicode="&#xec;" horiz-adv-x="215" d="M70 0V500H145V0H70ZM391 581H317L216 718V726H316L391 581Z" />
<glyph unicode="&#xed;" horiz-adv-x="215" d="M70 0V500H145V0H70ZM66 581L141 726H241V718L140 581H66Z" />
<glyph unicode="&#xee;" horiz-adv-x="215" d="M70 0V500H145V0H70ZM208 581L314 726H413L519 581H434L363 669L292 581H208Z" />
<glyph unicode="&#xef;" horiz-adv-x="215" d="M70 0V500H145V0H70ZM181 598Q158 598 142 614T126 653Q126 676 142 692T181 708Q204 708 220 692T236 653Q236 630 220 614T181 598ZM291 598Q268 598 252 614T236 653Q236 676 252 692T291 708Q314 708 330 692T346
653Q346 630 330 614T291 598Z" />
<glyph unicode="&#xf0;" horiz-adv-x="577" d="M283 -12Q212 -12 157 19T71 107T40 237Q40 306 71 361T155 448T273 481Q302 481 329 474T381 455T428 425T467 385L448 356Q437 404 410 449T341 534T245 605T128 659L157 725Q247 692 317 646T434 542T507 417T532
275Q532 187 499 123T410 23T283 -12ZM283 61Q332 61 369 82T429 144T451 237Q451 286 428 324T366 385T276 408Q230 408 194 386T136 325T115 237Q115 184 137 144T197 83T283 61ZM157 503L128 569L433 706L462 640L157 503Z" />
<glyph unicode="&#xf1;" horiz-adv-x="571" d="M70 0V500H143V355L121 374Q134 416 164 447T234 495T321 512Q375 512 417 489T482 421T506 309V0H431V292Q431 349 414 380T369 425T304 438Q263 438 227 418T168 361T145 270V0H70ZM349 592Q328 592 311 600T280
619T251 638T222 646Q205 646 195 631T185 593H121Q121 647 147 681T217 715Q238 715 255 707T286 688T315 669T344 661Q361 661 371 676T381 714H445Q445 660 419 626T349 592Z" />
<glyph unicode="&#xf2;" horiz-adv-x="572" d="M286 -12Q214 -12 159 21T72 113T40 250Q40 328 71 387T158 479T286 512Q359 512 414 479T500 387T532 250Q532 172 501 113T414 21T286 -12ZM286 61Q336 61 374 84T435 150T457 250Q457 308 435 350T375 415T286
439Q236 439 198 416T137 350T115 250Q115 193 137 151T197 85T286 61ZM336 581H262L161 718V726H261L336 581Z" />
<glyph unicode="&#xf3;" horiz-adv-x="572" d="M286 -12Q214 -12 159 21T72 113T40 250Q40 328 71 387T158 479T286 512Q359 512 414 479T500 387T532 250Q532 172 501 113T414 21T286 -12ZM286 61Q336 61 374 84T435 150T457 250Q457 308 435 350T375 415T286
439Q236 439 198 416T137 350T115 250Q115 193 137 151T197 85T286 61ZM228 581L303 726H403V718L302 581H228Z" />
<glyph unicode="&#xf4;" horiz-adv-x="572" d="M286 -12Q214 -12 159 21T72 113T40 250Q40 328 71 387T158 479T286 512Q359 512 414 479T500 387T532 250Q532 172 501 113T414 21T286 -12ZM286 61Q336 61 374 84T435 150T457 250Q457 308 435 350T375 415T286
439Q236 439 198 416T137 350T115 250Q115 193 137 151T197 85T286 61ZM130 581L236 726H335L441 581H356L285 669L214 581H130Z" />
<glyph unicode="&#xf5;" horiz-adv-x="572" d="M286 -12Q214 -12 159 21T72 113T40 250Q40 328 71 387T158 479T286 512Q359 512 414 479T500 387T532 250Q532 172 501 113T414 21T286 -12ZM286 61Q336 61 374 84T435 150T457 250Q457 308 435 350T375 415T286
439Q236 439 198 416T137 350T115 250Q115 193 137 151T197 85T286 61ZM352 592Q331 592 314 600T283 619T254 638T225 646Q208 646 198 631T188 593H124Q124 647 150 681T220 715Q241 715 258 707T289 688T318 669T347 661Q364 661 374 676T384 714H448Q448 660
422 626T352 592Z" />
<glyph unicode="&#xf6;" horiz-adv-x="572" d="M286 -12Q214 -12 159 21T72 113T40 250Q40 328 71 387T158 479T286 512Q359 512 414 479T500 387T532 250Q532 172 501 113T414 21T286 -12ZM286 61Q336 61 374 84T435 150T457 250Q457 308 435 350T375 415T286
439Q236 439 198 416T137 350T115 250Q115 193 137 151T197 85T286 61ZM377 598Q354 598 338 614T322 653Q322 676 338 692T377 708Q400 708 416 692T432 653Q432 630 416 614T377 598ZM195 598Q172 598 156 614T140 653Q140 676 156 692T195 708Q218 708 234 692T250
653Q250 630 234 614T195 598Z" />
<glyph unicode="&#xf7;" horiz-adv-x="548" d="M50 314V386H498V314H50ZM274 137Q249 137 233 153T216 195Q216 220 232 237T274 254Q299 254 315 237T332 195Q332 170 316 154T274 137ZM274 446Q249 446 233 462T216 504Q216 529 232 546T274 563Q299 563 315
546T332 504Q332 479 316 463T274 446Z" />
<glyph unicode="&#xf8;" horiz-adv-x="572" d="M139 -78L77 -42L434 577L496 541L139 -78ZM286 -12Q214 -12 159 21T72 113T40 250Q40 328 71 387T158 479T286 512Q359 512 414 479T500 387T532 250Q532 172 501 113T414 21T286 -12ZM286 61Q336 61 374 84T435
150T457 250Q457 308 435 350T375 415T286 439Q236 439 198 416T137 350T115 250Q115 193 137 151T197 85T286 61Z" />
<glyph unicode="&#xf9;" horiz-adv-x="571" d="M501 500V0H428V145L450 126Q437 84 408 53T337 5T250 -12Q196 -12 155 11T89 79T65 191V500H140V208Q140 152 157 120T203 75T267 62Q309 62 345 82T403 140T426 230V500H501ZM333 581H259L158 718V726H258L333 581Z" />
<glyph unicode="&#xfa;" horiz-adv-x="571" d="M501 500V0H428V145L450 126Q437 84 408 53T337 5T250 -12Q196 -12 155 11T89 79T65 191V500H140V208Q140 152 157 120T203 75T267 62Q309 62 345 82T403 140T426 230V500H501ZM225 581L300 726H400V718L299 581H225Z" />
<glyph unicode="&#xfb;" horiz-adv-x="571" d="M501 500V0H428V145L450 126Q437 84 408 53T337 5T250 -12Q196 -12 155 11T89 79T65 191V500H140V208Q140 152 157 120T203 75T267 62Q309 62 345 82T403 140T426 230V500H501ZM127 581L233 726H332L438 581H353L282
669L211 581H127Z" />
<glyph unicode="&#xfc;" horiz-adv-x="571" d="M501 500V0H428V145L450 126Q437 84 408 53T337 5T250 -12Q196 -12 155 11T89 79T65 191V500H140V208Q140 152 157 120T203 75T267 62Q309 62 345 82T403 140T426 230V500H501ZM374 598Q351 598 335 614T319 653Q319
676 335 692T374 708Q397 708 413 692T429 653Q429 630 413 614T374 598ZM192 598Q169 598 153 614T137 653Q137 676 153 692T192 708Q215 708 231 692T247 653Q247 630 231 614T192 598Z" />
<glyph unicode="&#xfd;" horiz-adv-x="507" d="M131 -200V-192L212 0L238 55L419 500H497V492L207 -200H131ZM213 0L10 492V500H88L259 76V0H213ZM196 581L271 726H371V718L270 581H196Z" />
<glyph unicode="&#xfe;" horiz-adv-x="596" d="M320 -12Q269 -12 226 8T152 66T106 152V348Q121 398 152 434T226 491T320 512Q387 512 440 478T524 385T556 250Q556 174 525 115T440 22T320 -12ZM70 -200V720L142 729L145 721V313L131 250L145 187V-200H70ZM317
61Q365 61 402 85T460 151T481 250Q481 306 460 348T402 415T317 439Q268 439 229 415T168 349T145 250Q145 194 167 152T229 85T317 61Z" />
<glyph unicode="&#xff;" horiz-adv-x="507" d="M131 -200V-192L212 0L238 55L419 500H497V492L207 -200H131ZM213 0L10 492V500H88L259 76V0H213ZM345 598Q322 598 306 614T290 653Q290 676 306 692T345 708Q368 708 384 692T400 653Q400 630 384 614T345 598ZM163
598Q140 598 124 614T108 653Q108 676 124 692T163 708Q186 708 202 692T218 653Q218 630 202 614T163 598Z" />
<glyph unicode="&#x2013;" horiz-adv-x="594" d="M35 250V322H559V250H35Z" />
<glyph unicode="&#x2014;" horiz-adv-x="804" d="M35 250V322H769V250H35Z" />
<glyph unicode="&#x2018;" horiz-adv-x="231" d="M178 707V648Q146 642 128 621T110 571Q110 554 115 539L78 518Q77 524 76 529T75 541Q75 559 84 568T104 579T120 582Q146 582 163 565T181 522Q181 497 164 479T120 461Q98 461 83 474T59 509T50 555Q50 576
56 600T78 647T117 686T178 707Z" />
<glyph unicode="&#x2019;" horiz-adv-x="231" d="M53 461V520Q85 526 103 547T121 597Q121 614 116 629L153 650Q155 644 155 639T156 627Q156 609 147 601T127 589T111 586Q85 586 68 603T50 646Q50 672 67 689T111 707Q133 707 148 694T172 659T181 613Q181
592 175 568T153 521T114 482T53 461Z" />
<glyph unicode="&#x201a;" horiz-adv-x="231" d="M53 -137V-78Q85 -72 103 -51T121 -1Q121 16 116 31L153 52Q155 46 155 41T156 29Q156 11 147 3T127 -9T111 -12Q85 -12 68 5T50 48Q50 74 67 91T111 109Q133 109 148 96T172 61T181 15Q181 -6 175 -30T153 -77T114
-116T53 -137Z" />
<glyph unicode="&#x201c;" horiz-adv-x="388" d="M178 707V648Q146 642 128 621T110 571Q110 554 115 539L78 518Q77 524 76 529T75 541Q75 559 84 568T104 579T120 582Q146 582 163 565T181 522Q181 497 164 479T120 461Q98 461 83 474T59 509T50 555Q50 576
56 600T78 647T117 686T178 707ZM335 707V648Q303 642 285 621T267 571Q267 554 272 539L235 518Q234 524 233 529T232 541Q232 559 241 568T261 579T277 582Q303 582 320 565T338 522Q338 497 321 479T277 461Q255 461 240 474T216 509T207 555Q207 576 213 600T235
647T274 686T335 707Z" />
<glyph unicode="&#x201d;" horiz-adv-x="388" d="M210 461V520Q242 526 260 547T278 597Q278 614 273 629L310 650Q312 644 312 639T313 627Q313 609 304 601T284 589T268 586Q242 586 225 603T207 646Q207 672 224 689T268 707Q290 707 305 694T329 659T338 613Q338
592 332 568T310 521T271 482T210 461ZM53 461V520Q85 526 103 547T121 597Q121 614 116 629L153 650Q155 644 155 639T156 627Q156 609 147 601T127 589T111 586Q85 586 68 603T50 646Q50 672 67 689T111 707Q133 707 148 694T172 659T181 613Q181 592 175 568T153
521T114 482T53 461Z" />
<glyph unicode="&#x201e;" horiz-adv-x="388" d="M210 -137V-78Q242 -72 260 -51T278 -1Q278 16 273 31L310 52Q312 46 312 41T313 29Q313 11 304 3T284 -9T268 -12Q242 -12 225 5T207 48Q207 74 224 91T268 109Q290 109 305 96T329 61T338 15Q338 -6 332 -30T310
-77T271 -116T210 -137ZM53 -137V-78Q85 -72 103 -51T121 -1Q121 16 116 31L153 52Q155 46 155 41T156 29Q156 11 147 3T127 -9T111 -12Q85 -12 68 5T50 48Q50 74 67 91T111 109Q133 109 148 96T172 61T181 15Q181 -6 175 -30T153 -77T114 -116T53 -137Z" />
<glyph unicode="&#x2022;" horiz-adv-x="400" d="M200 228Q149 228 115 263T80 350Q80 401 114 436T200 472Q251 472 285 437T320 350Q320 299 286 264T200 228Z" />
<glyph unicode="&#x2039;" horiz-adv-x="219" d="M137 22Q116 38 95 61T60 117T45 195Q45 240 59 273T95 329T137 368L174 339V335Q154 308 140 273T126 195Q126 153 140 118T174 55V51L137 22Z" />
<glyph unicode="&#x203a;" horiz-adv-x="219" d="M82 22L45 51V55Q65 82 79 117T93 195Q93 237 79 272T45 335V339L82 368Q103 353 124 330T159 273T174 195Q174 150 160 117T124 61T82 22Z" />
</font>
</defs>
</svg>
